<svg width="360" height="191" viewBox="0 0 360 191" fill="none" xmlns="http://www.w3.org/2000/svg">
<g clip-path="url(#clip0)">
<path opacity="0.1" d="M332.398 151.033C331.997 151.894 331.597 152.745 331.198 153.583C330.576 154.886 329.962 156.164 329.356 157.416C329.086 157.971 328.816 158.515 328.554 159.06C325.58 165.116 322.804 170.472 320.447 174.876C318.307 178.867 315.13 182.211 311.249 184.558C307.368 186.905 302.925 188.168 298.387 188.215L245.959 188.783H245.406L240.911 188.832L237.067 188.873L225.278 189H224.801L218.799 189.066H218.616L181.625 189.466L148.605 189.81L144.765 189.852L120.91 190.11H120.883L105.412 190.276H105.246L56.3272 190.803L41.6931 190.962C38.5701 190.997 35.4603 190.553 32.4729 189.645C27.274 188.079 22.6018 185.13 18.9589 181.115C12.6738 174.211 8.09303 166.156 5.01616 157.416C4.57134 156.154 4.15649 154.877 3.77159 153.583C-6.87989 117.687 6.10517 71.375 29.4755 40.3832C30.455 39.0873 31.4507 37.8236 32.4625 36.592L32.4867 36.5644C39.6741 27.7687 47.7327 20.4206 56.3168 15.1955C71.5283 5.92074 88.3819 3.30822 104.959 11.0941C118.985 17.684 132.08 20.7825 144.775 21.6234C146.058 21.7061 147.34 21.7682 148.616 21.8061C177.735 22.7194 205.026 12.259 237.074 5.50715C238.35 5.23831 239.629 4.97293 240.918 4.72132C263.78 0.185604 289.142 -2.20633 319.302 2.82225C322.436 3.33258 325.528 4.0698 328.554 5.02807C329.883 5.45545 331.165 5.91499 332.398 6.40671C346.794 12.2452 354.645 23.0331 357.981 36.5506C358.297 37.8052 358.57 39.0816 358.8 40.3798C364.715 72.895 347.392 119.017 332.398 151.033Z" fill="#B9C9EB"/>
<g opacity="0.1">
<path opacity="0.1" d="M56.317 15.196V190.841L41.6829 191C38.5599 191.035 35.4501 190.591 32.4626 189.683V36.5649H32.4868C39.6743 27.7589 47.7329 20.4107 56.317 15.196Z" fill="#B9C9EB"/>
<path opacity="0.1" d="M358.818 40.3838H29.4757C30.4552 39.0878 31.4508 37.8241 32.4626 36.5925V36.5649H357.998C358.314 37.8126 358.587 39.0856 358.818 40.3838Z" fill="#B9C9EB"/>
<path opacity="0.1" d="M332.398 6.41066V153.58H331.198C330.576 154.883 329.962 156.161 329.356 157.413C329.086 157.968 328.816 158.512 328.554 159.057V5.01824C329.884 5.44562 331.165 5.90976 332.398 6.41066Z" fill="#B9C9EB"/>
<path opacity="0.1" d="M240.918 4.7115V188.846L237.074 188.887V5.49733C238.35 5.22849 239.629 4.9631 240.918 4.7115Z" fill="#B9C9EB"/>
<path opacity="0.1" d="M148.616 21.7963V189.845L144.775 189.887V21.6136C146.058 21.6963 147.34 21.7446 148.616 21.7963Z" fill="#B9C9EB"/>
<path opacity="0.1" d="M331.199 153.584C330.576 154.887 329.962 156.164 329.356 157.416H5.01632C4.5715 156.155 4.15664 154.877 3.77174 153.584H331.199Z" fill="#B9C9EB"/>
</g>
<path d="M79.7219 91.6209H73.1533V111.494H79.7219V91.6209Z" fill="#3F3D56"/>
<path d="M256.496 90.5869H249.928V111.611H256.496V90.5869Z" fill="#3F3D56"/>
<path d="M298.387 183.928V188.408L245.866 188.891L245.306 188.901L225.344 189.084L224.867 189.091L218.8 189.142H218.62L181.635 189.484L120.924 190.045H120.872L105.436 190.19L105.27 190.194L36.6804 190.821V185.651L52.808 176L85.1669 175.732L85.8583 175.728L86.0865 175.725L86.778 175.714L102.314 175.587L103.009 175.583L103.231 175.58L103.922 175.577L108.904 175.535L109.035 175.532L121.325 175.428H121.426L217.327 174.622L219.674 174.605H219.909L221.7 174.587L234.716 174.48L235.408 174.47L236.047 174.463H236.379L240.428 174.432L241.23 174.422L242.305 174.415L245.676 174.384L251.024 174.339L251.715 174.332L252.918 174.325H253.143L278.971 174.105L298.387 183.928Z" fill="#65617D"/>
<path opacity="0.2" d="M298.387 183.928V188.408L245.866 188.891L245.306 188.901L225.344 189.084L224.867 189.091L218.8 189.142H218.62L181.635 189.484L120.924 190.045H120.872L105.436 190.19L105.27 190.194L36.6804 190.821V185.651L52.808 176L85.1669 175.732L85.8583 175.728L86.0865 175.725L86.778 175.714L102.314 175.587L103.009 175.583L103.231 175.58L103.922 175.577L108.904 175.535L109.035 175.532L121.325 175.428H121.426L217.327 174.622L219.674 174.605H219.909L221.7 174.587L234.716 174.48L235.408 174.47L236.047 174.463H236.379L240.428 174.432L241.23 174.422L242.305 174.415L245.676 174.384L251.024 174.339L251.715 174.332L252.918 174.325H253.143L278.971 174.105L298.387 183.928Z" fill="black"/>
<path d="M102.366 166.698V175.139C102.366 175.539 102.253 175.93 102.039 176.268C101.824 176.606 101.518 176.877 101.156 177.048C100.887 177.179 100.592 177.249 100.292 177.255L88.2265 177.51C87.9043 177.518 87.5847 177.45 87.293 177.314C86.9244 177.145 86.6121 176.875 86.3933 176.534C86.1745 176.194 86.0584 175.798 86.0588 175.394V166.698H102.366Z" fill="#3F3D56"/>
<path opacity="0.1" d="M102.366 166.698V175.139C102.366 175.539 102.253 175.93 102.039 176.268C101.824 176.606 101.518 176.877 101.156 177.048C100.887 177.179 100.592 177.249 100.292 177.255L88.2265 177.51C87.9043 177.518 87.5847 177.45 87.293 177.314C86.9244 177.145 86.6121 176.875 86.3933 176.534C86.1745 176.194 86.0584 175.798 86.0588 175.394V166.698H102.366Z" fill="black"/>
<path d="M103.058 166.698V175.139C103.058 175.539 102.944 175.93 102.73 176.268C102.516 176.606 102.21 176.877 101.848 177.048C101.578 177.179 101.283 177.249 100.983 177.255L88.9179 177.51C88.5957 177.518 88.2761 177.45 87.9845 177.314C87.6159 177.145 87.3036 176.875 87.0848 176.534C86.8659 176.194 86.7498 175.798 86.7503 175.394V166.698H103.058Z" fill="#3F3D56"/>
<path d="M251.715 166.698H235.408V177.555H251.715V166.698Z" fill="#3F3D56"/>
<path opacity="0.1" d="M251.715 166.698H235.408V177.555H251.715V166.698Z" fill="black"/>
<path d="M251.024 166.698H234.716V177.555H251.024V166.698Z" fill="#3F3D56"/>
<path opacity="0.1" d="M79.7219 91.6174V93.5923L73.1533 93.4234V91.6174H79.7219Z" fill="black"/>
<path d="M122.957 35.9825L115.064 92.5067C115.014 92.8677 114.833 93.1977 114.554 93.4336C114.275 93.6695 113.919 93.7947 113.554 93.7853L50.3569 92.1517L49.1572 92.1206C48.9484 92.1157 48.7429 92.0669 48.5542 91.9775C48.3655 91.8881 48.1978 91.76 48.0621 91.6016C47.9264 91.4432 47.8257 91.2581 47.7666 91.0583C47.7075 90.8586 47.6913 90.6486 47.719 90.4421L56.5797 31.271C56.6368 30.9045 56.8297 30.5726 57.1203 30.341C57.4109 30.1093 57.7781 29.9948 58.1493 30.0199L121.574 34.3005C121.779 34.3124 121.979 34.3663 122.161 34.4591C122.344 34.5518 122.505 34.6813 122.635 34.8393C122.765 34.9974 122.861 35.1805 122.916 35.3773C122.972 35.5741 122.986 35.7801 122.957 35.9825Z" fill="#65617D"/>
<path d="M60.8216 34.1764L54.139 86.3338L112.219 88.1708L119.362 37.8505L60.8216 34.1764Z" fill="#B9C9EB"/>
<path d="M201.877 33.3699H134.805C133.787 33.3699 132.962 34.1924 132.962 35.207V91.2728C132.962 92.2873 133.787 93.1098 134.805 93.1098H201.877C202.895 93.1098 203.72 92.2873 203.72 91.2728V35.207C203.72 34.1924 202.895 33.3699 201.877 33.3699Z" fill="#65617D"/>
<path d="M200.605 37.3921H136.302V87.1369H200.605V37.3921Z" fill="#B9C9EB"/>
<path opacity="0.1" d="M256.496 90.5834V91.8897L249.928 92.0241V90.5834H256.496Z" fill="black"/>
<path d="M286.135 89.4805C286.144 89.6233 286.124 89.7665 286.077 89.9016C286.029 90.0366 285.955 90.1606 285.858 90.2662C285.761 90.3718 285.644 90.4568 285.513 90.516C285.382 90.5753 285.241 90.6076 285.097 90.611L220.38 91.9448C220.111 91.9504 219.85 91.8543 219.649 91.676C219.448 91.4976 219.323 91.2501 219.297 90.9832L213.735 33.3286C213.721 33.1856 213.737 33.0412 213.781 32.9044C213.824 32.7675 213.896 32.6409 213.99 32.5323C214.084 32.4237 214.2 32.3353 214.33 32.2726C214.459 32.2098 214.6 32.1739 214.744 32.1671L278.971 28.9824L279.663 28.948C279.938 28.9335 280.207 29.0261 280.415 29.2062C280.623 29.3862 280.752 29.6397 280.776 29.913L286.135 89.4805Z" fill="#65617D"/>
<path d="M217.431 35.5551L276.088 32.6806L281.042 85.0689L222.848 86.4475L217.431 35.5551Z" fill="#B9C9EB"/>
<path opacity="0.1" d="M286.135 89.4805C286.144 89.6233 286.124 89.7665 286.077 89.9015C286.029 90.0366 285.955 90.1606 285.858 90.2662C285.761 90.3718 285.644 90.4568 285.513 90.516C285.382 90.5753 285.241 90.6076 285.097 90.611L278.971 28.9824L279.663 28.948C279.938 28.9335 280.207 29.0261 280.415 29.2062C280.623 29.3862 280.752 29.6397 280.776 29.913L286.135 89.4805Z" fill="black"/>
<path opacity="0.1" d="M58.1596 30.0164L50.3569 92.1517L49.1572 92.1206C48.9484 92.1157 48.7429 92.0669 48.5542 91.9775C48.3655 91.8881 48.1978 91.76 48.0621 91.6016C47.9264 91.4432 47.8257 91.2581 47.7666 91.0583C47.7075 90.8585 47.6913 90.6486 47.719 90.4421L56.5797 31.271C56.6362 30.9019 56.8302 30.5677 57.1231 30.3351C57.4161 30.1025 57.7862 29.9887 58.1596 30.0164Z" fill="black"/>
<path opacity="0.1" d="M79.7219 105.607H73.1533V111.494H79.7219V105.607Z" fill="black"/>
<path opacity="0.1" d="M103.058 166.695V168.408L86.7503 168.842V166.695H103.058Z" fill="black"/>
<path d="M131.838 107.658V165.63C131.834 165.983 131.694 166.322 131.446 166.576C131.198 166.829 130.862 166.978 130.507 166.991L64.2511 168.749H64.2339C63.8731 168.744 63.5283 168.599 63.2732 168.345C63.0181 168.091 62.8728 167.747 62.8683 167.387V107.658C62.8728 107.298 63.0181 106.955 63.2732 106.7C63.5283 106.446 63.8731 106.301 64.2339 106.296H130.473C130.834 106.301 131.178 106.446 131.434 106.7C131.689 106.955 131.834 107.298 131.838 107.658Z" fill="#65617D"/>
<path opacity="0.1" d="M64.2512 106.296V168.749H64.2339C63.8731 168.744 63.5283 168.599 63.2732 168.345C63.0181 168.091 62.8728 167.747 62.8683 167.387V107.658C62.8728 107.298 63.0181 106.955 63.2732 106.7C63.5283 106.446 63.8731 106.301 64.2339 106.296H64.2512Z" fill="black"/>
<path d="M67.2762 109.998H128.641V161.094L67.2762 162.473V109.998Z" fill="#D4DFEC"/>
<path opacity="0.1" d="M256.496 105.607H249.928V111.611H256.496V105.607Z" fill="black"/>
<path opacity="0.1" d="M251.024 166.695V168.904L234.716 168.47V166.695H251.024Z" fill="black"/>
<path d="M272.544 107.658V167.387C272.54 167.75 272.392 168.096 272.133 168.351C271.875 168.606 271.525 168.749 271.162 168.749L204.891 166.991C204.537 166.978 204.201 166.829 203.953 166.576C203.705 166.322 203.565 165.983 203.56 165.63V107.658C203.565 107.298 203.71 106.955 203.965 106.7C204.221 106.446 204.565 106.301 204.926 106.296H271.165C271.528 106.297 271.877 106.441 272.135 106.695C272.393 106.95 272.54 107.296 272.544 107.658Z" fill="#65617D"/>
<path opacity="0.1" d="M272.544 107.658V167.387C272.54 167.75 272.392 168.096 272.133 168.351C271.875 168.606 271.525 168.749 271.162 168.749V106.296C271.525 106.296 271.875 106.439 272.133 106.694C272.392 106.949 272.54 107.295 272.544 107.658Z" fill="black"/>
<path d="M268.137 109.998H206.772V161.094L268.137 162.473V109.998Z" fill="#D4DFEC"/>
<path d="M201.846 107.658V165.63C201.842 165.983 201.701 166.322 201.453 166.576C201.206 166.829 200.869 166.978 200.515 166.991L134.258 168.749C133.895 168.749 133.546 168.606 133.287 168.351C133.028 168.096 132.88 167.75 132.876 167.387V107.658C132.88 107.298 133.025 106.955 133.281 106.7C133.536 106.446 133.88 106.301 134.241 106.296H200.48C200.841 106.301 201.186 106.446 201.441 106.7C201.696 106.955 201.841 107.298 201.846 107.658Z" fill="#65617D"/>
<path d="M137.283 109.998H198.648V161.094L137.283 162.473V109.998Z" fill="#D4DFEC"/>
<path opacity="0.1" d="M298.387 183.928V188.408L245.866 188.891L245.306 188.901L225.344 189.084L224.867 189.091L218.8 189.142H218.62L181.635 189.484L120.924 190.045H120.872L105.436 190.19L105.27 190.194L36.6804 190.821V185.651L106.691 185.192H106.857L121.028 185.096H121.094L218.959 184.451H219.059L219.118 184.448H219.28L220.936 184.438H221.441L247.193 184.265L248.714 184.258L249.053 184.255L298.387 183.928Z" fill="black"/>
<path d="M168.453 111.494C178.254 111.494 186.199 103.573 186.199 93.8026C186.199 84.0319 178.254 76.1112 168.453 76.1112C158.653 76.1112 150.708 84.0319 150.708 93.8026C150.708 103.573 158.653 111.494 168.453 111.494Z" fill="#FBBEBE"/>
<path d="M186.202 129.992C186.202 129.992 151.803 134.128 155.088 129.992C156.277 128.496 156.605 124.064 156.54 119.014C156.519 117.481 156.464 115.892 156.384 114.31C156.004 106.727 155.088 99.3171 155.088 99.3171C155.088 99.3171 185.165 85.1861 181.708 96.3875C180.325 100.913 180.778 107.268 181.829 113.234C182.137 114.975 182.493 116.681 182.866 118.301C183.777 122.252 184.891 126.154 186.202 129.992Z" fill="#FBBEBE"/>
<path opacity="0.1" d="M186.202 129.992C186.202 129.992 151.803 134.128 155.088 129.992C156.277 128.496 156.605 124.064 156.54 119.014C161.784 116.781 168.457 118.446 168.457 118.446C175.481 117.05 179.986 117.322 182.866 118.301C183.777 122.252 184.891 126.154 186.202 129.992Z" fill="black"/>
<path d="M120.91 190.435V190.145L181.625 189.487L218.616 189.142H218.72L218.682 189.652L218.734 189.142H218.8V189.084L219.273 184.448L219.453 182.694L219.508 182.146L219.557 181.687L221.693 174.584L223.83 167.491L225.627 161.518L228.372 152.391C228.372 152.391 226.817 148.772 225.952 147.738C225.088 146.704 224.224 139.639 224.224 139.639C224.224 139.639 216.846 132.632 213.621 131.825C212.269 131.481 209.6 131.022 206.765 130.447C205.704 130.233 204.615 130.006 203.567 129.757C202.976 129.623 202.395 129.482 201.839 129.34C200.755 129.071 199.688 128.742 198.641 128.355C198.092 128.156 197.57 127.891 197.085 127.565C194.544 125.708 188.176 125.497 187.931 125.497C187.93 125.489 187.93 125.481 187.931 125.473V125.442C187.94 125.298 187.94 125.153 187.931 125.008C187.931 124.87 187.931 124.708 187.9 124.526C187.9 124.47 187.9 124.412 187.875 124.353C187.858 124.229 187.837 124.098 187.806 123.96C187.796 123.899 187.782 123.838 187.765 123.778C187.665 123.362 187.52 122.959 187.333 122.575C187.308 122.52 187.277 122.461 187.25 122.406C187.08 122.087 186.884 121.784 186.662 121.499C186.617 121.441 186.569 121.379 186.517 121.32C186.234 120.987 185.919 120.683 185.576 120.41C185.483 120.338 185.386 120.262 185.286 120.193C185.23 120.148 185.171 120.106 185.11 120.069L184.802 119.869L184.515 119.704C184.263 119.566 183.996 119.431 183.706 119.304C183.616 119.263 183.519 119.225 183.423 119.187C183.326 119.149 183.174 119.09 183.046 119.042H183.025L182.766 118.939C182.569 118.873 182.368 118.815 182.157 118.756L181.836 118.673L181.49 118.594L181.144 118.522C180.799 118.453 180.429 118.391 180.041 118.342L179.647 118.294L179.243 118.253L178.825 118.218L178.23 118.184L177.539 118.16C174.489 118.159 171.448 118.482 168.467 119.121C166.396 118.662 164.275 118.467 162.154 118.542H161.853L161.508 118.563H161.286L160.84 118.604C160.692 118.604 160.54 118.635 160.391 118.656C160.242 118.677 160.087 118.694 159.938 118.718L159.71 118.756C159.485 118.794 159.257 118.835 159.019 118.883C158.942 118.897 158.866 118.914 158.79 118.935C158.49 119.001 158.189 119.08 157.892 119.17C157.743 119.211 157.594 119.259 157.446 119.311C157.369 119.332 157.297 119.359 157.224 119.387L157.003 119.466L156.785 119.552L156.526 119.655C156.395 119.711 156.267 119.769 156.139 119.831C156.066 119.862 155.994 119.897 155.924 119.935C155.855 119.973 155.783 120.004 155.717 120.042C154.935 120.444 154.213 120.952 153.57 121.551L153.394 121.72L153.221 121.896C153.162 121.954 153.107 122.016 153.052 122.078C152.826 122.324 152.616 122.583 152.422 122.854C152.367 122.926 152.315 122.999 152.263 123.075C152.044 123.397 151.845 123.733 151.669 124.081C151.624 124.164 151.582 124.25 151.541 124.333C151.259 124.915 151.027 125.52 150.849 126.142C150.785 126.372 150.726 126.602 150.673 126.831C150.673 126.831 143.354 130.05 137.283 132.38C135.669 133.001 134.148 133.562 132.876 133.986C132.506 134.111 132.16 134.224 131.838 134.331C131.141 134.582 130.415 134.749 129.678 134.827C129.33 134.833 128.983 134.865 128.641 134.924C125.851 135.375 121.069 137.337 120.547 139.305C120.505 139.462 120.493 139.625 120.513 139.787C120.513 139.787 120.513 139.811 120.513 139.825C120.859 142.238 118.439 141.893 118.439 141.893C118.439 141.893 117.574 148.269 116.364 149.992C115.49 151.233 114.891 154.001 114.815 156.089C114.772 156.74 114.823 157.394 114.968 158.03C114.968 158.047 114.968 158.064 114.968 158.078C115.106 158.54 114.774 159.801 114.21 161.418C113.599 163.193 112.707 165.399 111.849 167.48C110.556 170.624 109.339 173.478 109.263 174.105C109.232 174.384 109.142 174.884 109.018 175.528C108.513 178.155 107.393 183.156 106.84 185.179C106.428 186.688 105.83 188.756 105.419 190.176C105.419 190.218 105.395 190.259 105.384 190.297L120.883 190.145V190.435H120.931H120.91Z" fill="#B9C9EB"/>
<path opacity="0.1" d="M126.566 149.81C126.566 149.81 146.272 159.977 153.359 158.771L126.566 149.81Z" fill="black"/>
<path opacity="0.1" d="M166.669 145.674C166.669 145.674 185.856 151.878 192.252 152.739C198.648 153.601 166.669 145.674 166.669 145.674Z" fill="black"/>
<path opacity="0.1" d="M187.951 125.711C177.926 127.552 159.05 127.155 150.891 126.876C153.881 116.192 168.464 119.824 168.464 119.824C186.513 116.233 187.896 123.685 187.951 125.711Z" fill="black"/>
<path d="M187.951 125.022C177.926 126.862 159.05 126.466 150.891 126.187C153.881 115.502 168.464 119.135 168.464 119.135C186.513 115.544 187.896 122.995 187.951 125.022Z" fill="#B9C9EB"/>
<path d="M241.171 172.126C241.171 172.126 252.98 170.317 253.212 175.487C253.444 180.657 247.19 184.269 247.19 184.269L241.171 172.126Z" fill="#FBBEBE"/>
<path opacity="0.1" d="M181.829 113.234C181.321 113.461 180.802 113.661 180.273 113.834C176.546 115.116 172.788 116.409 168.865 116.878C164.941 117.346 160.823 116.933 157.401 114.982C157.041 114.78 156.695 114.555 156.363 114.31C155.983 106.727 155.067 99.3171 155.067 99.3171C155.067 99.3171 185.144 85.1861 181.687 96.3875C180.311 100.913 180.778 107.268 181.829 113.234Z" fill="black"/>
<path d="M163.585 66.1505C163.092 66.2804 162.575 66.2936 162.076 66.1888C161.576 66.0841 161.108 65.8644 160.709 65.5474L161.428 66.5434C161.004 66.5922 160.575 66.5481 160.17 66.4141C159.765 66.2802 159.395 66.0596 159.084 65.768C159.019 66.6596 159.056 67.5558 159.195 68.4391C158.005 68.4963 156.834 68.1298 155.89 67.4051C155.871 67.716 155.949 68.0251 156.112 68.2907C156.275 68.5563 156.516 68.7657 156.803 68.8906C155.607 68.7482 154.401 69.0443 153.409 69.7235C152.416 70.4027 151.706 71.4187 151.409 72.5819L153.214 72.7473C151.796 73.0493 150.523 73.8236 149.605 74.9428C149.052 75.6321 148.63 76.5144 148.872 77.3554C149.114 78.1964 150.282 78.734 150.918 78.1343C150.014 79.211 149.356 80.4721 148.992 81.8289C148.627 83.1858 148.565 84.6058 148.81 85.9891C148.974 86.5786 149.028 87.1931 148.969 87.802C148.855 88.3707 148.495 88.8636 148.315 89.4185C147.97 90.4249 148.298 91.5175 148.606 92.5204L150.227 97.8351C150.815 99.7548 151.399 101.678 152.166 103.536C152.71 104.71 153.172 105.921 153.549 107.158C153.985 108.826 154.002 110.653 154.932 112.111C155.57 113.028 156.422 113.777 157.414 114.293C160.834 116.243 164.965 116.657 168.878 116.188C172.792 115.719 176.546 114.427 180.27 113.145C181.097 112.896 181.891 112.549 182.634 112.111C185.21 110.429 185.784 106.989 186.264 103.96C186.8 100.582 187.516 97.2112 188.785 94.0335C189.538 92.1413 190.513 90.2215 190.347 88.1949C190.136 85.5032 188 83.3215 187.471 80.6745C187.294 79.7897 187.302 78.8779 187.495 77.9965C187.659 77.4713 187.751 76.9264 187.768 76.3766C187.709 75.2668 186.797 74.412 185.939 73.6986C184.079 72.1499 182.16 70.6862 180.18 69.3076C180.08 68.6183 181.02 68.3219 181.445 67.7773C182.047 67.0087 181.424 65.7886 180.512 65.4302C179.599 65.0717 178.576 65.3061 177.625 65.5439C177.687 65.0588 177.59 64.5667 177.349 64.1408C177.108 63.7148 176.735 63.3779 176.287 63.18C175.838 62.9822 175.337 62.9339 174.859 63.0425C174.381 63.1511 173.95 63.4107 173.632 63.7827C173.379 63.2055 172.976 62.7066 172.464 62.3379C171.952 61.9693 171.35 61.7446 170.721 61.6872C168.429 61.508 168.384 63.2554 166.918 64.217C165.452 65.1786 164.242 63.9102 163.115 62.9866C162.908 63.5087 162.843 64.0759 162.925 64.6313C163.008 65.1867 163.235 65.7107 163.585 66.1505Z" fill="#3F3D56"/>
<path d="M249.928 182.466C249.928 182.466 249.62 183.197 249.053 184.255C248.195 185.883 247.151 187.406 245.942 188.794L245.848 188.894H245.288L225.327 189.077H224.85L224.791 189.008L220.919 184.427L219.46 182.701L219.401 182.628L219.277 182.483L219.208 182.401L219.118 182.294L216.279 178.937L217.317 174.629L219.083 167.37L219.128 167.194L219.474 165.816L219.719 164.782L220.542 161.411L223.363 149.813L228.376 152.398L233.662 161.704L236.5 166.701H238.056C238.35 166.701 239.024 167.267 239.702 167.918C239.944 168.149 240.186 168.394 240.393 168.607C241.008 169.242 241.496 169.786 241.496 169.786C241.496 169.786 244.016 169.841 244.694 171.82C244.729 171.915 244.758 172.013 244.78 172.113C245.005 172.89 245.298 173.647 245.655 174.374C246.101 175.342 246.661 176.442 247.228 177.541C248.282 179.557 249.354 181.477 249.748 182.173L249.796 182.259L249.928 182.466Z" fill="#B9C9EB"/>
<path opacity="0.1" d="M220.231 166.905L220.196 167.398V167.432L220.138 168.225L219.678 174.605L219.121 182.29L218.962 184.455L218.616 189.087V189.146L181.625 189.49L120.921 190.145V190.435H120.872V190.145V190.049L121.028 185.099L121.325 175.428L121.581 167.229L121.605 166.412C121.62 165.919 121.736 165.434 121.946 164.987C122.155 164.54 122.453 164.141 122.823 163.813C123.192 163.485 123.625 163.235 124.095 163.079C124.564 162.924 125.06 162.865 125.553 162.907C127.185 163.045 129.304 163.214 131.838 163.393L132.876 163.469C147.51 164.482 174.555 165.792 201.846 164.158C202.42 164.127 202.997 164.092 203.574 164.051C207.806 163.786 212.034 163.444 216.221 163.017C216.75 162.962 217.285 163.023 217.788 163.196C218.291 163.369 218.75 163.65 219.132 164.019C219.514 164.388 219.811 164.836 220.001 165.332C220.191 165.827 220.269 166.358 220.231 166.888V166.905Z" fill="black"/>
<path d="M120.91 190.435V190.145L181.625 189.487L218.616 189.142H218.72V189.084L219.066 184.451L219.214 182.384L219.781 174.591L220.227 168.421V168.27C220.248 167.985 220.235 167.7 220.189 167.418C220.191 167.407 220.191 167.395 220.189 167.384C220.094 166.802 219.857 166.253 219.498 165.785C219.117 165.298 218.619 164.916 218.049 164.675C217.479 164.434 216.857 164.341 216.241 164.406C212.055 164.833 207.827 165.175 203.595 165.44C203.018 165.481 202.44 165.516 201.866 165.547C174.576 167.163 147.53 165.854 132.896 164.858L131.859 164.782C129.325 164.603 127.206 164.437 125.574 164.296C124.676 164.22 123.783 164.479 123.065 165.022C122.347 165.565 121.857 166.354 121.688 167.236C121.653 167.422 121.633 167.611 121.626 167.801L121.391 175.439L121.069 185.113L120.917 190.062V190.159V190.449L120.91 190.435Z" fill="#3F3D56"/>
<path opacity="0.1" d="M220.335 169.321L219.909 174.605L219.277 182.48L219.118 184.451L218.772 188.867L218.751 189.087V189.146L218.699 189.656L218.737 189.146H218.637L181.646 189.49L120.921 190.145V190.049L121.09 185.099L121.436 175.428L121.657 169C121.668 168.635 121.771 168.278 121.955 167.962C122.14 167.645 122.401 167.381 122.715 167.191C123.107 166.952 123.564 166.843 124.022 166.881C124.748 166.939 125.64 167.008 126.68 167.084C128.371 167.208 130.456 167.353 132.883 167.505C137.377 167.787 143.015 168.09 149.477 168.339C167.454 169.028 191.723 169.259 214.776 167.246C215.813 167.156 216.884 167.056 217.932 166.957C218.347 166.915 218.764 166.994 219.135 167.184C219.24 167.236 219.34 167.298 219.432 167.37C219.733 167.588 219.972 167.88 220.124 168.218C220.159 168.285 220.188 168.356 220.21 168.428C220.314 168.714 220.356 169.018 220.335 169.321Z" fill="black"/>
<path opacity="0.1" d="M103.058 174.039V175.139C103.058 175.539 102.944 175.93 102.73 176.268C102.516 176.606 102.21 176.877 101.848 177.048L87.9845 177.314C87.6159 177.145 87.3036 176.875 87.0848 176.534C86.8659 176.194 86.7498 175.798 86.7503 175.394V174.36L103.058 174.039Z" fill="black"/>
<path d="M103.231 177.696L85.1669 178.041V175.053L103.231 174.708V177.696Z" fill="#3F3D56"/>
<path opacity="0.1" d="M103.231 177.696L85.1669 178.041V175.053L103.231 174.708V177.696Z" fill="black"/>
<path d="M103.922 177.696L85.8583 178.041V175.053L103.922 174.708V177.696Z" fill="#3F3D56"/>
<g opacity="0.1">
<path opacity="0.1" d="M163.727 65.02C163.389 64.5825 163.165 64.0688 163.074 63.5242C162.99 64.0565 163.04 64.6012 163.219 65.1096C163.391 65.0939 163.561 65.0639 163.727 65.02Z" fill="black"/>
<path opacity="0.1" d="M159.337 67.3086C159.272 66.886 159.229 66.4604 159.209 66.0333C159.209 66.4573 159.209 66.8846 159.209 67.312L159.337 67.3086Z" fill="black"/>
<path opacity="0.1" d="M187.512 78.8099C187.531 78.5028 187.573 78.1975 187.637 77.8965C187.8 77.3723 187.893 76.8287 187.913 76.2801C187.906 76.1569 187.887 76.0347 187.858 75.9147C187.799 76.2318 187.706 76.5489 187.637 76.8625C187.499 77.5019 187.457 78.1582 187.512 78.8099Z" fill="black"/>
<path opacity="0.1" d="M180.322 68.1599L180.698 68.4322C181.016 68.2031 181.313 67.9471 181.587 67.667C181.717 67.4876 181.798 67.2774 181.821 67.0572C181.844 66.8371 181.808 66.6148 181.718 66.4125C181.684 66.4911 181.64 66.5652 181.587 66.633C181.162 67.1776 180.221 67.4775 180.322 68.1599Z" fill="black"/>
<path opacity="0.1" d="M151.914 71.4755C151.788 71.7269 151.687 71.9901 151.613 72.2613C152.154 71.9604 152.737 71.7409 153.342 71.6099L151.914 71.4755Z" fill="black"/>
<path opacity="0.1" d="M156.682 67.7256C156.454 67.6009 156.237 67.4592 156.032 67.3017C156.023 67.438 156.033 67.5749 156.063 67.7084C156.269 67.6986 156.476 67.7043 156.682 67.7256Z" fill="black"/>
<path opacity="0.1" d="M190.482 88.033C190.34 89.7045 189.559 91.3141 188.926 92.8996C187.658 96.0773 186.942 99.4481 186.406 102.829C185.926 105.859 185.369 109.298 182.776 110.977C182.035 111.418 181.242 111.766 180.415 112.011C176.688 113.296 172.93 114.586 169.006 115.054C165.082 115.523 160.965 115.113 157.542 113.162C156.55 112.646 155.698 111.897 155.06 110.98C154.137 109.522 154.12 107.696 153.677 106.028C153.3 104.789 152.838 103.578 152.294 102.402C151.53 100.548 150.943 98.6106 150.358 96.7046C149.817 94.933 149.276 93.1603 148.737 91.3865C148.559 90.8529 148.427 90.3052 148.343 89.7494C148.208 90.6317 148.471 91.5554 148.737 92.4205C149.276 94.1966 149.817 95.9693 150.358 97.7386C150.943 99.6583 151.53 101.582 152.294 103.436C152.838 104.611 153.3 105.823 153.677 107.062C154.113 108.73 154.13 110.556 155.06 112.014C155.698 112.931 156.55 113.68 157.542 114.196C160.965 116.147 165.093 116.557 169.006 116.088C172.92 115.62 176.674 114.33 180.415 113.045C181.242 112.8 182.035 112.452 182.776 112.011C185.352 110.332 185.926 106.893 186.406 103.863C186.942 100.482 187.658 97.1113 188.926 93.9335C189.68 92.0448 190.655 90.125 190.489 88.095C190.489 88.0743 190.482 88.0536 190.482 88.033Z" fill="black"/>
<path opacity="0.1" d="M149.104 86.6991C149.104 86.6991 149.104 86.675 149.104 86.6612C149.167 86.0534 149.112 85.4394 148.945 84.8517C148.876 84.4735 148.83 84.0913 148.81 83.7075C148.77 84.4363 148.815 85.1673 148.945 85.8857C149 86.1546 149.062 86.4268 149.104 86.6991Z" fill="black"/>
<path opacity="0.1" d="M150.158 78.2687C150.424 77.8234 150.726 77.4004 151.06 77.0038C150.428 77.607 149.259 77.0693 149.014 76.2318C148.923 76.5706 148.923 76.927 149.014 77.2658C149.099 77.5187 149.249 77.7447 149.45 77.9208C149.651 78.0969 149.895 78.217 150.158 78.2687Z" fill="black"/>
</g>
<path opacity="0.1" d="M236.504 166.698C236.504 166.698 237.6 170.662 236.504 174.108C235.408 177.555 236.504 166.698 236.504 166.698Z" fill="black"/>
<path opacity="0.1" d="M241.171 170.741C241.171 170.741 241.631 175.773 240.593 176.666C239.556 177.558 241.171 170.741 241.171 170.741Z" fill="black"/>
<path d="M68.7939 118.17L103.922 117.825" stroke="#B9C9EB" stroke-width="2" stroke-miterlimit="10"/>
<path d="M68.7939 122.468L103.922 122.127" stroke="#B9C9EB" stroke-width="2" stroke-miterlimit="10"/>
<path d="M68.7939 126.769L103.922 126.425" stroke="#B9C9EB" stroke-width="2" stroke-miterlimit="10"/>
</g>
<defs>
<clipPath id="clip0">
<rect width="360" height="191" fill="white"/>
</clipPath>
</defs>
</svg>
