<svg width="197" height="140" viewBox="0 0 197 140" fill="none" xmlns="http://www.w3.org/2000/svg">
<g clip-path="url(#clip0)">
<path opacity="0.1" d="M259 89.3329C259.003 93.1138 258.481 96.8769 257.449 100.515C256.452 104.023 254.984 107.381 253.086 110.499C253.086 121.794 245.43 131.556 234.316 136.2C229.672 138.122 224.69 139.103 219.661 139.086H49.167C40.0544 139.086 31.6098 136.638 24.6842 132.467C22.7022 131.279 20.822 129.93 19.0628 128.434C11.3652 121.846 6.59273 112.742 6.59273 102.687C2.27262 96.062 -0.0180999 88.3286 -3.78561e-07 80.4297C-3.78561e-07 63.8903 9.82344 49.6686 23.8964 43.3896C25.7651 42.5563 27.6961 41.8688 29.6718 41.3335C30.3706 41.1441 31.077 40.9743 31.7909 40.824C33.694 40.4204 35.6244 40.1566 37.5663 40.0349C38.2682 39.9913 38.9738 39.9665 39.6831 39.9605H40.0726C40.8559 39.9605 41.6324 39.9875 42.4045 40.0326L42.658 39.6042C42.9689 39.0872 43.2874 38.5754 43.6134 38.0689C44.2021 37.146 44.8194 36.2367 45.4654 35.3409C46.1415 34.3955 46.8472 33.4651 47.5822 32.5498L47.7701 32.3243C48.1867 31.8073 48.6123 31.2962 49.047 30.7912C50.4054 29.2145 51.8392 27.6852 53.3486 26.2032C69.6742 10.268 95.2504 0.00982666 124.003 0.00982666C146.376 0.00982666 166.826 6.22111 182.491 16.4838C188.425 13.1396 195.129 11.3848 201.948 11.3908C224.076 11.3908 242.02 29.5106 242.02 51.8622C242.017 53.2765 241.941 54.6897 241.794 56.0963C247.128 59.8564 251.475 64.8389 254.47 70.6235C257.465 76.408 259.018 82.8249 259 89.3329Z" fill="#B9C9EB"/>
<path opacity="0.2" d="M53.3531 26.1934V30.7814H49.0515C50.3993 29.2062 51.8332 27.6769 53.3531 26.1934Z" fill="#B9C9EB"/>
<path opacity="0.2" d="M61.2476 25.03H55.4722V30.7814H61.2476V25.03Z" fill="#B9C9EB"/>
<path opacity="0.2" d="M69.1399 25.03H63.3644V30.7814H69.1399V25.03Z" fill="#B9C9EB"/>
<path opacity="0.2" d="M77.0344 25.03H71.259V30.7814H77.0344V25.03Z" fill="#B9C9EB"/>
<path opacity="0.2" d="M84.9266 25.03H79.1512V30.7814H84.9266V25.03Z" fill="#B9C9EB"/>
<path opacity="0.2" d="M92.8212 25.03H87.0457V30.7814H92.8212V25.03Z" fill="#B9C9EB"/>
<path d="M100.716 25.03H94.9403V30.7814H100.716V25.03Z" fill="#B9C9EB"/>
<path opacity="0.2" d="M108.608 25.03H102.833V30.7814H108.608V25.03Z" fill="#B9C9EB"/>
<path opacity="0.2" d="M116.502 25.03H110.727V30.7814H116.502V25.03Z" fill="#B9C9EB"/>
<path opacity="0.2" d="M124.395 25.03H118.619V30.7814H124.395V25.03Z" fill="#B9C9EB"/>
<path d="M132.289 25.03H126.514V30.7814H132.289V25.03Z" fill="#B9C9EB"/>
<path opacity="0.2" d="M140.184 25.03H134.408V30.7814H140.184V25.03Z" fill="#B9C9EB"/>
<path opacity="0.2" d="M148.076 25.03H142.301V30.7814H148.076V25.03Z" fill="#B9C9EB"/>
<path opacity="0.2" d="M155.971 25.03H150.195V30.7814H155.971V25.03Z" fill="#B9C9EB"/>
<path opacity="0.2" d="M163.865 25.03H158.09V30.7814H163.865V25.03Z" fill="#B9C9EB"/>
<path opacity="0.2" d="M171.757 25.03H165.982V30.7814H171.757V25.03Z" fill="#B9C9EB"/>
<path opacity="0.2" d="M179.652 25.03H173.876V30.7814H179.652V25.03Z" fill="#B9C9EB"/>
<path d="M187.544 25.03H181.769V30.7814H187.544V25.03Z" fill="#B9C9EB"/>
<path d="M195.439 25.03H189.663V30.7814H195.439V25.03Z" fill="#B9C9EB"/>
<path d="M45.4608 35.3378V38.0658H43.6089C44.1975 37.137 44.8149 36.2276 45.4608 35.3378Z" fill="#B9C9EB"/>
<path opacity="0.2" d="M53.3531 32.3145H47.5777V38.0658H53.3531V32.3145Z" fill="#B9C9EB"/>
<path d="M61.2476 32.3145H55.4722V38.0658H61.2476V32.3145Z" fill="#B9C9EB"/>
<path opacity="0.2" d="M69.1399 32.3145H63.3644V38.0658H69.1399V32.3145Z" fill="#B9C9EB"/>
<path opacity="0.7" d="M77.0344 32.3145H71.259V38.0658H77.0344V32.3145Z" fill="#B9C9EB"/>
<path opacity="0.2" d="M84.9266 32.3145H79.1512V38.0658H84.9266V32.3145Z" fill="#B9C9EB"/>
<path opacity="0.4" d="M92.8212 32.3145H87.0457V38.0658H92.8212V32.3145Z" fill="#B9C9EB"/>
<path d="M100.716 32.3145H94.9403V38.0658H100.716V32.3145Z" fill="#B9C9EB"/>
<path opacity="0.4" d="M108.608 32.3145H102.833V38.0658H108.608V32.3145Z" fill="#B9C9EB"/>
<path opacity="0.2" d="M116.502 32.3145H110.727V38.0658H116.502V32.3145Z" fill="#B9C9EB"/>
<path opacity="0.4" d="M124.395 32.3145H118.619V38.0658H124.395V32.3145Z" fill="#B9C9EB"/>
<path d="M132.289 32.3145H126.514V38.0658H132.289V32.3145Z" fill="#B9C9EB"/>
<path opacity="0.4" d="M140.184 32.3145H134.408V38.0658H140.184V32.3145Z" fill="#B9C9EB"/>
<path opacity="0.4" d="M148.076 32.3145H142.301V38.0658H148.076V32.3145Z" fill="#B9C9EB"/>
<path opacity="0.2" d="M155.971 32.3145H150.195V38.0658H155.971V32.3145Z" fill="#B9C9EB"/>
<path opacity="0.4" d="M163.865 32.3145H158.09V38.0658H163.865V32.3145Z" fill="#B9C9EB"/>
<path opacity="0.4" d="M171.757 32.3145H165.982V38.0658H171.757V32.3145Z" fill="#B9C9EB"/>
<path opacity="0.2" d="M179.652 32.3145H173.876V38.0658H179.652V32.3145Z" fill="#B9C9EB"/>
<path opacity="0.2" d="M187.544 32.3145H181.769V38.0658H187.544V32.3145Z" fill="#B9C9EB"/>
<path opacity="0.4" d="M195.439 32.3145H189.663V38.0658H195.439V32.3145Z" fill="#B9C9EB"/>
<path opacity="0.2" d="M29.6718 41.3327V45.3526H23.8964V43.3889C25.7651 42.5555 27.6961 41.868 29.6718 41.3327Z" fill="#B9C9EB"/>
<path opacity="0.2" d="M37.5663 40.0341V45.3525H31.7909V40.8232L37.5663 40.0341Z" fill="#B9C9EB"/>
<path d="M45.4586 39.6012H39.6831V45.3526H45.4586V39.6012Z" fill="#B9C9EB"/>
<path opacity="0.7" d="M53.3531 39.6012H47.5777V45.3526H53.3531V39.6012Z" fill="#B9C9EB"/>
<path d="M61.2476 39.6012H55.4722V45.3526H61.2476V39.6012Z" fill="#B9C9EB"/>
<path opacity="0.7" d="M69.1399 39.6012H63.3644V45.3526H69.1399V39.6012Z" fill="#B9C9EB"/>
<path opacity="0.7" d="M77.0344 39.6012H71.259V45.3526H77.0344V39.6012Z" fill="#B9C9EB"/>
<path opacity="0.2" d="M84.9266 39.6012H79.1512V45.3526H84.9266V39.6012Z" fill="#B9C9EB"/>
<path opacity="0.4" d="M92.8212 39.6012H87.0457V45.3526H92.8212V39.6012Z" fill="#B9C9EB"/>
<path opacity="0.4" d="M100.716 39.6012H94.9403V45.3526H100.716V39.6012Z" fill="#B9C9EB"/>
<path d="M108.608 39.6012H102.833V45.3526H108.608V39.6012Z" fill="#B9C9EB"/>
<path opacity="0.2" d="M116.502 39.6012H110.727V45.3526H116.502V39.6012Z" fill="#B9C9EB"/>
<path opacity="0.4" d="M124.395 39.6012H118.619V45.3526H124.395V39.6012Z" fill="#B9C9EB"/>
<path d="M132.289 39.6012H126.514V45.3526H132.289V39.6012Z" fill="#B9C9EB"/>
<path opacity="0.2" d="M140.184 39.6012H134.408V45.3526H140.184V39.6012Z" fill="#B9C9EB"/>
<path opacity="0.4" d="M148.076 39.6012H142.301V45.3526H148.076V39.6012Z" fill="#B9C9EB"/>
<path opacity="0.2" d="M155.971 39.6012H150.195V45.3526H155.971V39.6012Z" fill="#B9C9EB"/>
<path d="M163.865 39.6012H158.09V45.3526H163.865V39.6012Z" fill="#B9C9EB"/>
<path opacity="0.2" d="M171.757 39.6012H165.982V45.3526H171.757V39.6012Z" fill="#B9C9EB"/>
<path opacity="0.7" d="M179.652 39.6012H173.876V45.3526H179.652V39.6012Z" fill="#B9C9EB"/>
<path opacity="0.7" d="M187.544 39.6012H181.769V45.3526H187.544V39.6012Z" fill="#B9C9EB"/>
<path opacity="0.4" d="M195.439 39.6012H189.663V45.3526H195.439V39.6012Z" fill="#B9C9EB"/>
<path opacity="0.2" d="M29.6718 46.8856H23.8964V52.637H29.6718V46.8856Z" fill="#B9C9EB"/>
<path opacity="0.2" d="M37.5663 46.8856H31.7909V52.637H37.5663V46.8856Z" fill="#B9C9EB"/>
<path opacity="0.2" d="M45.4586 46.8856H39.6831V52.637H45.4586V46.8856Z" fill="#B9C9EB"/>
<path opacity="0.2" d="M53.3531 46.8856H47.5777V52.637H53.3531V46.8856Z" fill="#B9C9EB"/>
<path d="M61.2476 46.8856H55.4722V52.637H61.2476V46.8856Z" fill="#B9C9EB"/>
<path opacity="0.7" d="M69.1399 46.8856H63.3644V52.637H69.1399V46.8856Z" fill="#B9C9EB"/>
<path opacity="0.7" d="M77.0344 46.8856H71.259V52.637H77.0344V46.8856Z" fill="#B9C9EB"/>
<path opacity="0.2" d="M84.9266 46.8856H79.1512V52.637H84.9266V46.8856Z" fill="#B9C9EB"/>
<path opacity="0.2" d="M92.8212 46.8856H87.0457V52.637H92.8212V46.8856Z" fill="#B9C9EB"/>
<path opacity="0.4" d="M100.716 46.8856H94.9403V52.637H100.716V46.8856Z" fill="#B9C9EB"/>
<path opacity="0.4" d="M108.608 46.8856H102.833V52.637H108.608V46.8856Z" fill="#B9C9EB"/>
<path d="M116.502 46.8856H110.727V52.637H116.502V46.8856Z" fill="#B9C9EB"/>
<path opacity="0.2" d="M124.395 46.8856H118.619V52.637H124.395V46.8856Z" fill="#B9C9EB"/>
<path opacity="0.4" d="M132.289 46.8856H126.514V52.637H132.289V46.8856Z" fill="#B9C9EB"/>
<path opacity="0.4" d="M140.184 46.8856H134.408V52.637H140.184V46.8856Z" fill="#B9C9EB"/>
<path opacity="0.4" d="M148.076 46.8856H142.301V52.637H148.076V46.8856Z" fill="#B9C9EB"/>
<path opacity="0.4" d="M155.971 46.8856H150.195V52.637H155.971V46.8856Z" fill="#B9C9EB"/>
<path opacity="0.2" d="M163.865 46.8856H158.09V52.637H163.865V46.8856Z" fill="#B9C9EB"/>
<path opacity="0.2" d="M171.757 46.8856H165.982V52.637H171.757V46.8856Z" fill="#B9C9EB"/>
<path opacity="0.2" d="M179.652 46.8856H173.876V52.637H179.652V46.8856Z" fill="#B9C9EB"/>
<path opacity="0.2" d="M187.544 46.8856H181.769V52.637H187.544V46.8856Z" fill="#B9C9EB"/>
<path opacity="0.7" d="M195.439 46.8856H189.663V52.637H195.439V46.8856Z" fill="#B9C9EB"/>
<path opacity="0.2" d="M29.6718 54.1723H23.8964V59.9237H29.6718V54.1723Z" fill="#B9C9EB"/>
<path opacity="0.2" d="M37.5663 54.1723H31.7909V59.9237H37.5663V54.1723Z" fill="#B9C9EB"/>
<path opacity="0.4" d="M45.4586 54.1723H39.6831V59.9237H45.4586V54.1723Z" fill="#B9C9EB"/>
<path opacity="0.2" d="M53.3531 54.1723H47.5777V59.9237H53.3531V54.1723Z" fill="#B9C9EB"/>
<path opacity="0.2" d="M61.2476 54.1723H55.4722V59.9237H61.2476V54.1723Z" fill="#B9C9EB"/>
<path opacity="0.7" d="M69.1399 54.1723H63.3644V59.9237H69.1399V54.1723Z" fill="#B9C9EB"/>
<path opacity="0.7" d="M77.0344 54.1723H71.259V59.9237H77.0344V54.1723Z" fill="#B9C9EB"/>
<path opacity="0.2" d="M84.9266 54.1723H79.1512V59.9237H84.9266V54.1723Z" fill="#B9C9EB"/>
<path opacity="0.2" d="M92.8212 54.1723H87.0457V59.9237H92.8212V54.1723Z" fill="#B9C9EB"/>
<path opacity="0.4" d="M100.716 54.1723H94.9403V59.9237H100.716V54.1723Z" fill="#B9C9EB"/>
<path d="M108.608 54.1723H102.833V59.9237H108.608V54.1723Z" fill="#B9C9EB"/>
<path opacity="0.2" d="M116.502 54.1723H110.727V59.9237H116.502V54.1723Z" fill="#B9C9EB"/>
<path d="M124.395 54.1723H118.619V59.9237H124.395V54.1723Z" fill="#B9C9EB"/>
<path d="M132.289 54.1723H126.514V59.9237H132.289V54.1723Z" fill="#B9C9EB"/>
<path d="M140.184 54.1723H134.408V59.9237H140.184V54.1723Z" fill="#B9C9EB"/>
<path opacity="0.2" d="M148.076 54.1723H142.301V59.9237H148.076V54.1723Z" fill="#B9C9EB"/>
<path d="M155.971 54.1723H150.195V59.9237H155.971V54.1723Z" fill="#B9C9EB"/>
<path opacity="0.2" d="M163.865 54.1723H158.09V59.9237H163.865V54.1723Z" fill="#B9C9EB"/>
<path opacity="0.2" d="M171.757 54.1723H165.982V59.9237H171.757V54.1723Z" fill="#B9C9EB"/>
<path opacity="0.2" d="M179.652 54.1723H173.876V59.9237H179.652V54.1723Z" fill="#B9C9EB"/>
<path opacity="0.2" d="M187.544 54.1723H181.769V59.9237H187.544V54.1723Z" fill="#B9C9EB"/>
<path opacity="0.2" d="M195.439 54.1723H189.663V59.9237H195.439V54.1723Z" fill="#B9C9EB"/>
<path opacity="0.2" d="M29.6718 61.4568H23.8964V67.2081H29.6718V61.4568Z" fill="#B9C9EB"/>
<path opacity="0.2" d="M37.5663 61.4568H31.7909V67.2081H37.5663V61.4568Z" fill="#B9C9EB"/>
<path opacity="0.2" d="M45.4586 61.4568H39.6831V67.2081H45.4586V61.4568Z" fill="#B9C9EB"/>
<path opacity="0.4" d="M53.3531 61.4568H47.5777V67.2081H53.3531V61.4568Z" fill="#B9C9EB"/>
<path opacity="0.2" d="M61.2476 61.4568H55.4722V67.2081H61.2476V61.4568Z" fill="#B9C9EB"/>
<path opacity="0.2" d="M69.1399 61.4568H63.3644V67.2081H69.1399V61.4568Z" fill="#B9C9EB"/>
<path opacity="0.7" d="M77.0344 61.4568H71.259V67.2081H77.0344V61.4568Z" fill="#B9C9EB"/>
<path opacity="0.2" d="M84.9266 61.4568H79.1512V67.2081H84.9266V61.4568Z" fill="#B9C9EB"/>
<path opacity="0.2" d="M92.8212 61.4568H87.0457V67.2081H92.8212V61.4568Z" fill="#B9C9EB"/>
<path opacity="0.2" d="M100.716 61.4568H94.9403V67.2081H100.716V61.4568Z" fill="#B9C9EB"/>
<path d="M108.608 61.4568H102.833V67.2081H108.608V61.4568Z" fill="#B9C9EB"/>
<path opacity="0.2" d="M116.502 61.4568H110.727V67.2081H116.502V61.4568Z" fill="#B9C9EB"/>
<path d="M124.395 61.4568H118.619V67.2081H124.395V61.4568Z" fill="#B9C9EB"/>
<path d="M132.289 61.4568H126.514V67.2081H132.289V61.4568Z" fill="#B9C9EB"/>
<path opacity="0.2" d="M140.184 61.4568H134.408V67.2081H140.184V61.4568Z" fill="#B9C9EB"/>
<path opacity="0.2" d="M148.076 61.4568H142.301V67.2081H148.076V61.4568Z" fill="#B9C9EB"/>
<path opacity="0.2" d="M155.971 61.4568H150.195V67.2081H155.971V61.4568Z" fill="#B9C9EB"/>
<path opacity="0.2" d="M163.865 61.4568H158.09V67.2081H163.865V61.4568Z" fill="#B9C9EB"/>
<path opacity="0.2" d="M171.757 61.4568H165.982V67.2081H171.757V61.4568Z" fill="#B9C9EB"/>
<path opacity="0.2" d="M179.652 61.4568H173.876V67.2081H179.652V61.4568Z" fill="#B9C9EB"/>
<path opacity="0.2" d="M187.544 61.4568H181.769V67.2081H187.544V61.4568Z" fill="#B9C9EB"/>
<path opacity="0.2" d="M195.439 61.4568H189.663V67.2081H195.439V61.4568Z" fill="#B9C9EB"/>
<path opacity="0.7" d="M29.6718 68.7435H23.8964V74.4949H29.6718V68.7435Z" fill="#B9C9EB"/>
<path opacity="0.7" d="M37.5663 68.7435H31.7909V74.4949H37.5663V68.7435Z" fill="#B9C9EB"/>
<path opacity="0.7" d="M45.4586 68.7435H39.6831V74.4949H45.4586V68.7435Z" fill="#B9C9EB"/>
<path opacity="0.7" d="M53.3531 68.7435H47.5777V74.4949H53.3531V68.7435Z" fill="#B9C9EB"/>
<path opacity="0.7" d="M61.2476 68.7435H55.4722V74.4949H61.2476V68.7435Z" fill="#B9C9EB"/>
<path opacity="0.2" d="M69.1399 68.7435H63.3644V74.4949H69.1399V68.7435Z" fill="#B9C9EB"/>
<path opacity="0.2" d="M77.0344 68.7435H71.259V74.4949H77.0344V68.7435Z" fill="#B9C9EB"/>
<path opacity="0.2" d="M84.9266 68.7435H79.1512V74.4949H84.9266V68.7435Z" fill="#B9C9EB"/>
<path opacity="0.2" d="M92.8212 68.7435H87.0457V74.4949H92.8212V68.7435Z" fill="#B9C9EB"/>
<path opacity="0.2" d="M100.716 68.7435H94.9403V74.4949H100.716V68.7435Z" fill="#B9C9EB"/>
<path opacity="0.2" d="M108.608 68.7435H102.833V74.4949H108.608V68.7435Z" fill="#B9C9EB"/>
<path d="M116.502 68.7435H110.727V74.4949H116.502V68.7435Z" fill="#B9C9EB"/>
<path opacity="0.2" d="M124.395 68.7435H118.619V74.4949H124.395V68.7435Z" fill="#B9C9EB"/>
<path opacity="0.2" d="M132.289 68.7435H126.514V74.4949H132.289V68.7435Z" fill="#B9C9EB"/>
<path opacity="0.2" d="M140.184 68.7435H134.408V74.4949H140.184V68.7435Z" fill="#B9C9EB"/>
<path d="M148.076 68.7435H142.301V74.4949H148.076V68.7435Z" fill="#B9C9EB"/>
<path opacity="0.2" d="M155.971 68.7435H150.195V74.4949H155.971V68.7435Z" fill="#B9C9EB"/>
<path opacity="0.2" d="M163.865 68.7435H158.09V74.4949H163.865V68.7435Z" fill="#B9C9EB"/>
<path opacity="0.2" d="M171.757 68.7435H165.982V74.4949H171.757V68.7435Z" fill="#B9C9EB"/>
<path opacity="0.2" d="M179.652 68.7435H173.876V74.4949H179.652V68.7435Z" fill="#B9C9EB"/>
<path opacity="0.2" d="M187.544 68.7435H181.769V74.4949H187.544V68.7435Z" fill="#B9C9EB"/>
<path opacity="0.2" d="M195.439 68.7435H189.663V74.4949H195.439V68.7435Z" fill="#B9C9EB"/>
<path d="M166.294 89.9025C170.654 89.9025 174.189 86.3827 174.189 82.0408C174.189 77.699 170.654 74.1792 166.294 74.1792C161.934 74.1792 158.4 77.699 158.4 82.0408C158.4 86.3827 161.934 89.9025 166.294 89.9025Z" fill="#767D9F"/>
<path d="M165.885 72.0397C166.672 75.4636 167.341 78.913 167.89 82.3881C168.056 83.4207 168.203 84.5096 167.827 85.4858C167.512 86.2997 166.872 86.9355 166.369 87.6479C165.866 88.3604 165.486 89.2735 165.792 90.0896C166.097 90.9058 166.989 91.3522 167.841 91.5821C170.277 92.236 172.873 91.7602 175.298 91.0523C176.396 90.7709 177.449 90.3367 178.425 89.7627C179.453 89.1134 180.295 88.2116 181.069 87.2827C184.603 83.0148 186.917 77.8925 189.095 72.8017C187.695 72.9285 186.286 72.722 184.982 72.199C183.679 71.676 182.519 70.8517 181.599 69.7941C180.707 68.7503 180.053 67.2961 180.555 66.02C179.081 66.8249 177.331 66.879 175.744 67.4291C174.76 67.8034 173.813 68.2676 172.914 68.8157C171.831 69.4394 170.753 70.0752 169.681 70.723C168.456 71.458 167.309 72.1118 165.885 72.0397Z" fill="#AE6E79"/>
<path d="M182.396 77.9421C181.012 80.6228 179.213 83.1997 176.643 84.7959C174.073 86.3922 170.614 86.825 168.04 85.2468C166.772 84.4758 165.812 83.3034 164.705 82.3159C163.598 81.3284 162.215 80.483 160.727 80.6115C159.088 80.7535 157.804 82.0273 156.706 83.2471C155.04 85.1003 153.43 87.0324 152.251 89.2261C149.987 93.4421 149.45 98.3706 149.55 103.15C149.649 107.93 150.345 112.685 150.36 117.464C150.383 123.344 149.382 129.177 148.37 134.969C157.675 133.828 166.992 136.321 176.317 137.266C182.285 137.877 188.298 137.864 194.298 137.848C195.353 137.848 196.475 137.821 197.354 137.239C197.891 136.849 198.325 136.335 198.619 135.742C199.448 134.22 199.781 132.484 200.012 130.768C200.598 126.435 200.616 122.048 200.632 117.674C200.673 107.078 200.711 96.4429 199.36 85.93C199.027 83.344 198.601 80.7445 197.605 78.3254C196.609 75.9062 194.984 73.681 192.71 72.3846C191.25 71.5504 187.866 70.0985 186.145 70.9395C184.214 71.8774 183.322 76.1475 182.396 77.9421Z" fill="#767D9F"/>
<path d="M183.084 107.864C182.733 101.326 181.305 94.3485 184.345 88.5453C185.092 87.1204 182.412 85.3415 183.24 83.9618C184.251 82.2795 185.018 80.4631 185.518 78.5666C185.69 77.9151 185.828 77.2252 185.665 76.5713C185.364 75.3787 184.18 74.6685 183.175 73.9425C182.065 73.1399 181.495 70.6937 181.137 69.3703C180.779 68.0469 183.983 69.6409 185.271 69.1697C187.06 68.5181 189.333 68.9284 191.117 69.589C192.113 69.9542 193.195 69.9858 194.257 70.0129C196.319 70.067 198.389 70.1188 200.435 69.8663C201.354 69.7513 202.276 69.5777 203.2 69.6296C205.556 69.7626 207.605 71.3678 209 73.2662C210.394 75.1645 211.282 77.3762 212.425 79.4324C213.378 81.1458 214.515 82.7646 215.328 84.5479C216.048 86.1261 216.503 87.8215 216.953 89.5079L218.115 93.8344C218.318 94.4533 218.414 95.1021 218.4 95.753C218.341 96.4452 218.033 97.09 217.721 97.7055C216.539 99.9868 215.123 102.139 213.494 104.129C211.051 107.111 208.085 109.801 206.634 113.372C206.068 114.763 205.753 116.242 205.466 117.717C204.307 123.614 203.483 129.572 202.998 135.562C200.353 134.343 197.58 133.419 194.73 132.809C193.309 132.506 191.873 132.28 190.428 132.132C189.163 132.002 187.53 132.25 186.326 131.907C184.311 131.337 184.089 127.944 183.784 126.167C183.295 123.337 183.197 120.458 183.179 117.6C183.156 114.349 183.258 111.104 183.084 107.864Z" fill="#4C4981"/>
<path d="M138.834 95.6381C139.788 101.049 140.838 106.476 142.91 111.56C142.857 111.609 142.805 111.654 142.753 111.7C142.57 111.855 142.38 112.002 142.181 112.15C141.716 112.475 141.207 112.75 140.822 113.174C140.676 113.336 140.561 113.523 140.483 113.726C140.411 113.885 140.375 114.057 140.375 114.23C140.375 114.404 140.411 114.576 140.483 114.734C139.403 115.21 138.148 115.063 136.937 115.018C135.893 114.98 134.881 115.018 134.044 115.589C132.88 116.387 132.529 117.92 132.341 119.313C132.272 119.821 132.212 120.33 132.162 120.839C132.114 121.313 132.075 121.788 132.045 122.264C131.942 123.841 131.928 125.421 132.002 126.999C132.014 127.287 132.03 127.576 132.049 127.865C128.35 127.777 124.979 125.856 121.789 123.989C121.06 123.563 120.308 123.114 119.835 122.411C119.399 121.72 119.214 120.901 119.312 120.091C119.312 119.976 119.332 119.865 119.348 119.748C119.45 119.079 119.624 118.423 119.867 117.791C120.865 115.1 122.336 112.608 124.211 110.43C125.022 109.488 125.934 108.566 126.312 107.382C126.478 106.866 126.539 106.318 126.706 105.804C127.458 103.576 130.17 102.523 131.098 100.361C131.325 99.8451 131.429 99.2792 131.71 98.7832C131.962 98.3709 132.288 98.008 132.672 97.7123C132.837 97.5747 133.009 97.4417 133.179 97.3087C134.77 96.0672 136.302 94.7558 137.777 93.3745C138.052 93.1175 138.323 92.8575 138.592 92.5944C138.556 93.6148 138.638 94.636 138.834 95.6381Z" fill="#4C4981"/>
<path d="M161.649 79.6353C161.323 79.978 160.969 80.3004 160.623 80.6205L160.53 80.7039L160.163 81.0421C159.498 81.6143 158.922 82.2822 158.454 83.0239L158.416 83.087C157.261 85.1454 157.689 87.6795 158.01 90.0175C158.409 92.931 158.588 95.8701 158.547 98.8102C158.488 102.868 158.008 106.9 157.999 110.953C157.999 111.873 158.019 112.791 158.06 113.711C158.126 115.205 158.239 116.698 158.375 118.19C158.522 119.827 158.699 121.462 158.864 123.096C158.995 124.361 159.12 125.624 159.224 126.886C159.276 127.54 159.326 128.192 159.366 128.845C159.414 129.612 159.453 130.381 159.475 131.147C159.491 131.634 159.5 132.119 159.5 132.606C159.5 132.883 159.5 133.158 159.5 133.433C159.5 133.961 159.486 134.487 159.457 135.012C159.427 135.686 159.381 136.363 159.319 137.041C159.249 137.778 159.124 138.583 158.604 139.101C158.572 139.133 158.538 139.162 158.504 139.191L157.77 139.101C152.714 138.498 147.609 138.408 142.534 138.831C142.645 138.069 142.747 137.309 142.846 136.545C142.891 136.184 142.937 135.821 142.98 135.458C143.03 135.043 143.077 134.628 143.122 134.213C143.174 133.763 143.222 133.312 143.267 132.861C143.385 131.699 143.488 130.536 143.577 129.373C143.709 127.676 143.808 125.976 143.876 124.273C143.91 123.46 143.935 122.646 143.953 121.831C143.979 120.821 143.991 119.811 143.99 118.799C143.99 117.816 143.981 116.832 143.965 115.846C143.965 115.521 143.951 115.196 143.924 114.874C143.904 114.584 143.864 114.295 143.804 114.01C143.636 113.354 143.408 112.714 143.125 112.099C143.075 111.981 143.027 111.873 142.98 111.749C142.953 111.688 142.928 111.625 142.903 111.564C144.207 110.408 145.135 108.859 146.027 107.335C147.474 104.879 148.954 102.316 149.197 99.4798C149.439 96.6436 148.024 93.4579 145.303 92.5922C144.562 92.3667 143.779 92.3036 143.016 92.1706C142.296 92.0443 140.795 91.758 139.962 91.2439C139.509 91.7069 139.056 92.1615 138.603 92.608C138.631 91.9268 138.798 91.2586 139.095 90.6442L139.416 90.66C139.39 90.5878 139.378 90.5113 139.38 90.4346C139.38 90.1933 139.548 89.9205 139.905 89.6184C140.972 88.7166 142.649 88.5159 143.322 87.2962C143.602 86.789 143.65 86.1847 143.876 85.6527C144.526 84.1354 146.392 83.5762 147.515 82.3633C148.637 81.1503 148.918 79.4324 149.826 78.0796C150.504 77.0918 151.445 76.3112 152.543 75.8251C152.633 75.7823 152.726 75.7394 152.819 75.7011C154.698 74.9007 156.93 74.7181 158.877 74.7226C159.634 74.7226 161.594 74.7452 162.554 75.1262C162.71 75.1816 162.852 75.2683 162.973 75.3809C163.996 76.4902 162.405 78.8327 161.649 79.6353Z" fill="#4C4981"/>
<path d="M139.172 90.4863C140.921 89.962 142.757 89.7891 144.573 89.9776C146.39 90.1661 148.151 90.7122 149.754 91.5843C151.384 92.4861 152.846 93.7442 153.743 95.3674C155.09 97.8024 155.031 100.738 154.936 103.518C154.888 104.909 154.827 106.349 154.211 107.598C153.498 109.044 152.153 110.036 150.781 110.847C149.922 111.393 148.98 111.799 147.992 112.049C146.471 112.378 144.891 112.098 143.358 111.823C141.692 111.517 139.903 111.147 138.746 109.912C138.067 109.195 137.696 108.263 137.329 107.353C136.802 106.037 136.274 104.724 135.744 103.412C134.827 101.132 134.517 99.2363 135.728 97.0155C136.278 96.0032 136.951 95.0563 137.494 94.0373C137.766 93.5187 138.739 90.6194 139.172 90.4863Z" fill="#4C4981"/>
<path d="M234.323 129.461V136.202C229.678 138.123 224.697 139.104 219.668 139.088H158.61C158.579 139.119 158.545 139.149 158.511 139.178L157.777 139.088H49.167C40.0544 139.088 31.6098 136.639 24.6842 132.468V122.176L76.9189 116.172H76.9597L107.379 118.738L115.25 119.415L119.339 119.759L127.802 120.474L132.156 120.842L138.495 121.378L139.387 121.453L143.956 121.838L150.154 122.345L158.871 123.08L173.401 124.309L183.623 125.173L200.408 126.591L203.6 126.859L203.944 126.888L204.243 126.913L208.459 127.269L213.086 127.662L213.623 127.707L234.323 129.461Z" fill="#504F60"/>
<path d="M172.968 129.213L107.508 118.087L104.97 130.868L134.977 134.446L144.216 135.598L169.631 130.613L172.968 129.213Z" fill="#9C9CA1"/>
<path d="M139.083 134.957L171.88 128.818C172.044 128.787 172.213 128.792 172.374 128.834C172.536 128.875 172.687 128.952 172.815 129.058C172.944 129.164 173.047 129.298 173.118 129.448C173.189 129.599 173.225 129.763 173.224 129.93C173.225 130.194 173.133 130.449 172.964 130.653C172.794 130.856 172.559 130.993 172.298 131.041L140.27 137.014L139.083 134.957Z" fill="#9C9CA1"/>
<path d="M153.31 115.652C154.331 115.557 155.366 115.397 156.285 114.946C157.417 114.385 158.298 113.417 159.346 112.705C161.651 111.127 164.734 110.915 167.376 111.821C170.019 112.728 172.224 114.669 173.768 116.986C174.793 118.531 175.563 120.501 174.839 122.206C174.59 122.727 174.277 123.214 173.906 123.658L172.018 126.115C171.659 126.632 171.227 127.094 170.736 127.488C170.03 128 169.151 128.21 168.287 128.336C165.989 128.669 163.65 128.48 161.334 128.633C157.356 128.897 153.471 130.173 149.484 130.13C147.193 130.106 144.931 129.646 142.692 129.186L132.783 127.157C131.058 126.805 129.108 126.291 128.296 124.733C127.931 124.032 127.863 123.22 127.82 122.431C127.702 120.258 127.82 117.841 129.332 116.274C130.754 114.804 133.002 114.34 134.7 113.253C136.779 111.92 137.465 112.351 139.656 113.352C143.932 115.28 148.636 116.073 153.31 115.652Z" fill="#AE6E79"/>
<path opacity="0.05" d="M153.31 115.652C154.331 115.557 155.366 115.397 156.285 114.946C157.417 114.385 158.298 113.417 159.346 112.705C161.651 111.127 164.734 110.915 167.376 111.821C170.019 112.728 172.224 114.669 173.768 116.986C174.793 118.531 175.563 120.501 174.839 122.206C174.59 122.727 174.277 123.214 173.906 123.658L172.018 126.115C171.659 126.632 171.227 127.094 170.736 127.488C170.03 128 169.151 128.21 168.287 128.336C165.989 128.669 163.65 128.48 161.334 128.633C157.356 128.897 153.471 130.173 149.484 130.13C147.193 130.106 144.931 129.646 142.692 129.186L132.783 127.157C131.058 126.805 129.108 126.291 128.296 124.733C127.931 124.032 127.863 123.22 127.82 122.431C127.702 120.258 127.82 117.841 129.332 116.274C130.754 114.804 133.002 114.34 134.7 113.253C136.779 111.92 137.465 112.351 139.656 113.352C143.932 115.28 148.636 116.073 153.31 115.652Z" fill="black"/>
<path d="M193.104 112.561C190.324 113.632 187.528 114.707 184.617 115.345C179.736 116.416 174.628 116.247 169.785 117.471C167.227 118.12 164.685 119.167 162.056 118.955C160.881 118.86 159.747 118.504 158.604 118.233C152.181 116.655 144.879 117.167 139.663 121.225C137.879 122.611 136.419 124.341 135.094 126.185C134.811 126.583 134.619 127.039 134.533 127.52C134.447 128 134.469 128.494 134.597 128.965C134.725 129.436 134.956 129.874 135.273 130.246C135.59 130.618 135.986 130.916 136.432 131.118C138.461 132.047 140.634 132.624 142.858 132.825C145.83 133.086 148.816 132.667 151.773 132.247C156.161 131.627 160.551 131.005 164.927 130.309C166.498 130.058 168.069 129.799 169.65 129.601C181.022 128.169 192.6 129.909 204.001 128.715C205.153 128.593 206.326 128.435 207.374 127.946C210.028 126.706 211.341 123.437 210.793 120.564C210.245 117.692 208.131 115.304 205.586 113.839C203.453 112.606 201.153 112.108 198.778 111.584C196.573 111.073 195.228 111.749 193.104 112.561Z" fill="#AE6E79"/>
<path opacity="0.1" d="M217.494 95.39C218.749 97.0268 219.016 99.2228 218.88 101.272C218.744 103.322 218.255 105.348 218.183 107.407C218.083 110.229 218.767 113.043 218.651 115.857C218.57 117.825 218.101 119.755 217.546 121.644C216.892 123.874 215.946 126.271 213.879 127.341C211.135 128.764 205.38 127.964 202.493 129.078C202.756 127.447 205.273 125.087 205.536 123.457C205.717 122.33 205.9 121.171 205.706 120.041C205.457 118.601 204.608 117.322 203.6 116.258C201.997 114.565 199.905 113.291 197.607 112.876C195.31 112.461 189.684 112.802 187.845 114.247C187.619 112.755 191.83 111.316 193.31 110.994C194.048 110.829 194.895 110.922 195.486 110.455C196.618 109.571 195.796 107.81 195.851 106.397C195.894 105.269 196.555 104.237 196.688 103.11C196.915 101.306 195.733 99.4685 196.197 97.6987C196.369 97.0449 196.752 96.4699 197.017 95.8477C197.823 93.9426 197.469 91.7692 197.039 89.7446C196.772 88.4731 196.512 87.0392 197.223 85.9547C197.881 84.9424 199.751 88.5475 200.949 88.3806C204.904 87.8283 208.484 84.9086 211.678 87.2984C213.306 88.5159 213.519 89.7784 214.169 91.5167C214.8 93.1715 216.437 94.0193 217.494 95.39Z" fill="black"/>
<path d="M218.174 95.3901C219.428 97.0269 219.695 99.2228 219.559 101.272C219.423 103.322 218.934 105.348 218.862 107.407C218.762 110.23 219.446 113.043 219.33 115.857C219.249 117.825 218.78 119.755 218.226 121.644C217.571 123.874 216.625 126.271 214.558 127.342C211.814 128.764 206.059 127.964 203.172 129.078C203.435 127.448 205.953 125.087 206.215 123.457C206.396 122.33 206.58 121.171 206.385 120.041C206.136 118.601 205.287 117.322 204.279 116.258C202.677 114.565 200.585 113.291 198.287 112.876C195.989 112.462 190.363 112.802 188.524 114.247C188.298 112.755 192.509 111.316 193.99 110.994C194.728 110.829 195.574 110.922 196.165 110.455C197.297 109.571 196.475 107.81 196.53 106.397C196.573 105.27 197.234 104.237 197.368 103.11C197.594 101.306 196.412 99.4685 196.876 97.6987C197.048 97.0449 197.431 96.47 197.696 95.8477C198.502 93.9426 198.149 91.7693 197.718 89.7447C197.451 88.4731 197.191 87.0392 197.902 85.9548C198.561 84.9425 199.849 84.5592 201.046 84.3901C205.056 83.85 209.119 84.8939 212.366 87.2985C213.994 88.5159 214.207 89.7785 214.857 91.5167C215.479 93.1716 217.116 94.0193 218.174 95.3901Z" fill="#4C4981"/>
<path d="M68.3724 84.708L80.6816 130.011C80.8327 130.566 81.15 131.062 81.5912 131.433C82.0325 131.804 82.5768 132.032 83.1517 132.087L138.556 137.388C139.007 137.431 139.463 137.366 139.884 137.198C140.305 137.03 140.68 136.764 140.976 136.422C141.273 136.081 141.483 135.673 141.589 135.234C141.695 134.795 141.694 134.336 141.585 133.898L128.105 79.252C127.945 78.6025 127.558 78.0306 127.015 77.638C126.471 77.2455 125.805 77.0576 125.135 77.1079L70.8922 81.1481C70.4757 81.1803 70.0715 81.3036 69.7084 81.5093C69.3453 81.715 69.0322 81.9979 68.7916 82.3379C68.5509 82.6779 68.3886 83.0666 68.3161 83.4763C68.2436 83.886 68.2628 84.3066 68.3724 84.708Z" fill="#9C9CA1"/>
<path d="M178.201 93.5481C181.564 93.5481 184.291 90.7975 184.291 87.4045C184.291 84.0114 181.564 81.2608 178.201 81.2608C174.837 81.2608 172.11 84.0114 172.11 87.4045C172.11 90.7975 174.837 93.5481 178.201 93.5481Z" fill="white"/>
<path d="M183.202 76.197C183.202 76.197 184.485 79.9982 180.698 81.5967L180.213 82.4399L182.586 84.7711C182.586 84.7711 185.511 79.4571 185.194 77.5701C185.194 77.5701 184.741 75.6537 183.202 76.197Z" fill="white"/>
<path d="M178.9 93.5481C182.144 93.5481 184.773 90.9297 184.773 87.6997C184.773 84.4698 182.144 81.8514 178.9 81.8514C175.657 81.8514 173.027 84.4698 173.027 87.6997C173.027 90.9297 175.657 93.5481 178.9 93.5481Z" fill="#B9C9EB"/>
<path d="M185.223 78.4336L184.291 76.9005L182.932 76.7088C183.222 71.6609 181.907 70.1571 181.907 70.1571L181.601 70.1278L180.27 69.9993L177.766 67.4111V66.6761C181.284 67.0932 183.229 68.757 184.279 70.7072C186.136 74.1296 185.223 78.4336 185.223 78.4336Z" fill="#B9C9EB"/>
<path opacity="0.1" d="M181.612 69.1989V70.1278L180.281 69.9993L177.777 67.4111C177.777 67.4111 181.651 68.2746 181.612 69.1989Z" fill="black" stroke="#4C4981" stroke-miterlimit="10"/>
<path opacity="0.1" d="M185.223 78.4335L184.291 76.9004V70.7162C186.136 74.1296 185.223 78.4335 185.223 78.4335Z" fill="black" stroke="#4C4981" stroke-miterlimit="10"/>
<path d="M168.048 90.1038C169.611 89.2054 169.543 86.1763 167.898 83.3382C166.252 80.5 163.652 78.9275 162.089 79.8259C160.527 80.7242 160.594 83.7533 162.239 86.5915C163.885 89.4297 166.486 91.0022 168.048 90.1038Z" fill="white"/>
<path d="M165.95 84.469C167.596 87.3075 169.616 89.2035 168.053 90.1054C166.491 91.0072 161.941 90.5563 160.295 87.7155C158.649 84.8748 160.143 80.9519 161.705 80.0501C163.267 79.1482 164.302 81.6237 165.95 84.469Z" fill="#B9C9EB"/>
<path opacity="0.1" d="M180.605 64.0202C180.605 73.0903 174.372 81.8312 165.264 81.8312C160.89 81.8312 156.695 80.1007 153.602 77.0206C150.509 73.9404 148.771 69.7628 148.771 65.4068C148.771 61.0507 150.509 56.8731 153.602 53.793C156.695 50.7128 160.89 48.9824 165.264 48.9824C174.372 48.9914 180.605 54.9479 180.605 64.0202Z" fill="black"/>
<path d="M165.264 81.3893C174.373 81.3893 181.757 74.0358 181.757 64.9649C181.757 55.8939 174.373 48.5405 165.264 48.5405C156.155 48.5405 148.771 55.8939 148.771 64.9649C148.771 74.0358 156.155 81.3893 165.264 81.3893Z" fill="#AE6E79"/>
<path d="M163.815 57.6872C165.778 58.4064 166.94 60.4265 168.701 61.5515C171.191 63.1297 174.433 62.7216 177.277 61.9415C178.862 61.5109 180.519 60.9856 182.079 61.4636C182.308 61.5647 182.561 61.6006 182.81 61.5673C183.15 61.4703 183.317 61.0961 183.428 60.7624C185.357 55.0358 184.49 48.5495 181.578 43.2513C180.827 41.8851 179.926 40.5639 178.685 39.6147C177.707 38.8685 176.557 38.3792 175.398 37.9621C173.279 37.2045 171.088 36.6658 168.859 36.3546C168.466 36.2834 168.064 36.2705 167.666 36.3163C167.121 36.4042 166.632 36.6973 166.145 36.9589C164.06 38.0717 161.748 38.697 159.385 38.7873C156.215 38.9068 152.593 38.1628 150.15 40.1874C147.207 42.6155 147.94 47.3523 146.032 50.6485C144.768 52.8286 142.332 54.4113 141.932 56.8936C141.827 57.6523 141.876 58.4241 142.074 59.1639C143.007 62.9831 146.72 65.9411 150.677 66.011C151.285 66.0572 151.894 65.933 152.434 65.6525C152.788 65.4118 153.101 65.1157 153.36 64.7755C155.952 61.7183 158.918 55.8926 163.815 57.6872Z" fill="#444053"/>
<path opacity="0.1" d="M183.428 59.1008C183.317 59.4345 183.15 59.8088 182.81 59.9057C182.561 59.9391 182.308 59.9032 182.079 59.802C180.519 59.324 178.853 59.8493 177.279 60.28C174.433 61.06 171.185 61.4771 168.703 59.8899C166.94 58.7627 165.78 56.7336 163.815 56.0256C158.918 54.222 155.952 60.0568 153.353 63.1139C153.094 63.4541 152.782 63.7503 152.427 63.991C151.887 64.2714 151.278 64.3956 150.671 64.3494C146.727 64.2796 143.011 61.3216 142.067 57.5024C142.015 57.2769 141.97 57.0514 141.936 56.826C141.936 56.8463 141.936 56.8643 141.925 56.8846C141.82 57.6433 141.869 58.4151 142.067 59.1549C143 62.9742 146.715 65.9321 150.671 66.002C151.278 66.0482 151.887 65.924 152.427 65.6436C152.782 65.4029 153.094 65.1067 153.353 64.7665C155.952 61.7094 158.918 55.8836 163.815 57.6782C165.78 58.3974 166.94 60.4175 168.703 61.5425C171.194 63.1207 174.433 62.7126 177.279 61.9326C178.864 61.5019 180.519 60.9766 182.079 61.4546C182.308 61.5558 182.561 61.5917 182.81 61.5583C183.15 61.4614 183.317 61.0871 183.428 60.7534C184.206 58.4103 184.55 55.9458 184.442 53.4802C184.376 55.3924 184.034 57.2852 183.428 59.1008Z" fill="black"/>
</g>
<defs>
<clipPath id="clip0">
<rect width="259" height="139.178" fill="white"/>
</clipPath>
</defs>
</svg>
