<svg width="407" height="712" viewBox="0 0 407 712" fill="none" xmlns="http://www.w3.org/2000/svg">
<g clip-path="url(#clip0)">
<g opacity="0.8">
<path opacity="0.8" d="M341.5 13.4562L333.246 455.617" stroke="#3F3D56" stroke-width="3" stroke-miterlimit="10"/>
<path opacity="0.8" d="M340.773 52.7378C340.773 52.7378 337.424 73.826 360.465 63.3033C383.505 52.7806 378.425 93.3597 378.425 93.3597" stroke="#3F3D56" stroke-width="3" stroke-miterlimit="10"/>
<path opacity="0.8" d="M338.145 193.558C338.145 193.558 340.699 214.757 318.066 203.379C295.434 192.001 298.998 232.742 298.998 232.742" stroke="#3F3D56" stroke-width="3" stroke-miterlimit="10"/>
<path opacity="0.8" d="M334.361 396.316C334.361 396.316 337.704 375.221 314.663 385.751C291.622 396.281 296.702 355.695 296.702 355.695" stroke="#3F3D56" stroke-width="3" stroke-miterlimit="10"/>
<path opacity="0.8" d="M296.71 355.695L298.888 239.025" stroke="#3F3D56" stroke-width="3" stroke-miterlimit="10"/>
<path opacity="0.8" d="M328.504 13.2127C328.371 20.3425 334.082 26.2312 341.259 26.3656C348.436 26.4999 354.363 20.829 354.496 13.6992C354.629 6.5694 348.918 0.680641 341.741 0.546294C334.563 0.411947 328.637 6.08288 328.504 13.2127Z" fill="#B9C9EB"/>
<path opacity="0.8" d="M365.61 93.3389C365.477 100.469 371.187 106.357 378.364 106.492C385.542 106.626 391.468 100.955 391.601 93.8254C391.734 86.6956 386.023 80.8069 378.846 80.6725C371.669 80.5382 365.742 86.2091 365.61 93.3389Z" fill="#3ACC6C"/>
<path opacity="0.8" d="M327.022 92.6175C326.889 99.7472 332.6 105.636 339.777 105.77C346.954 105.905 352.88 100.234 353.013 93.104C353.146 85.9742 347.436 80.0854 340.259 79.9511C333.081 79.8167 327.155 85.4877 327.022 92.6175Z" fill="#B9C9EB"/>
<path opacity="0.8" d="M326.066 143.861C325.933 150.99 331.643 156.879 338.82 157.014C345.998 157.148 351.924 151.477 352.057 144.347C352.19 137.217 346.479 131.329 339.302 131.194C332.125 131.06 326.199 136.731 326.066 143.861Z" fill="#B9C9EB"/>
<path opacity="0.8" d="M286.198 232.716C286.065 239.846 291.775 245.734 298.952 245.869C306.13 246.003 312.056 240.332 312.189 233.202C312.322 226.072 306.611 220.184 299.434 220.049C292.257 219.915 286.331 225.586 286.198 232.716Z" fill="#FF6584"/>
<path opacity="0.8" d="M284.934 300.399C284.801 307.529 290.512 313.418 297.689 313.552C304.866 313.686 310.793 308.016 310.926 300.886C311.058 293.756 305.348 287.867 298.171 287.733C290.993 287.598 285.067 293.269 284.934 300.399Z" fill="#FF6584"/>
<path opacity="0.8" d="M323.196 297.583C323.063 304.713 328.774 310.602 335.951 310.736C343.128 310.871 349.054 305.2 349.187 298.07C349.32 290.94 343.61 285.051 336.433 284.917C329.255 284.783 323.329 290.454 323.196 297.583Z" fill="#B9C9EB"/>
<path opacity="0.8" d="M320.312 452.105C320.179 459.235 325.889 465.124 333.067 465.258C340.244 465.393 346.17 459.722 346.303 452.592C346.436 445.462 340.725 439.573 333.548 439.439C326.371 439.305 320.445 444.976 320.312 452.105Z" fill="#B9C9EB"/>
<path opacity="0.8" d="M321.492 388.893C321.359 396.023 327.069 401.912 334.247 402.046C341.424 402.18 347.35 396.509 347.483 389.38C347.616 382.25 341.905 376.361 334.728 376.227C327.551 376.092 321.625 381.763 321.492 388.893Z" fill="#B9C9EB"/>
</g>
<path d="M259.858 305.957C259.453 304.48 259.049 302.987 258.24 301.702C257.49 300.612 256.598 299.628 255.59 298.776C252.657 296.092 249.057 293.367 245.169 294.044C243.967 294.312 242.805 294.74 241.715 295.317C241.148 295.582 240.578 295.847 239.995 296.071C238.355 296.763 236.543 296.923 234.809 296.528C233.919 296.288 233.09 295.855 232.212 295.586C231.795 295.46 231.369 295.367 230.938 295.309C231.786 294.926 232.609 294.488 233.401 293.999C237.762 291.306 241.241 286.439 240.756 281.233C240.59 279.483 239.995 277.806 239.405 276.154L237.851 271.821C237.18 269.944 236.484 268.031 235.258 266.472C233.895 264.734 231.953 263.555 229.947 262.678C225.638 260.789 220.93 260.124 216.281 259.479L215.958 259.435V208.792C215.958 207.926 215.617 207.096 215.01 206.484C214.403 205.872 213.58 205.528 212.722 205.528H206.613C206.343 203.863 206.074 202.201 205.804 200.542C205.035 195.806 204.238 190.983 202.074 186.72C200.658 183.929 198.405 181.265 195.367 180.718C194.77 180.664 194.183 180.527 193.623 180.31C192.733 179.87 192.248 178.891 191.564 178.168C189.801 176.304 186.932 176.275 184.57 175.313C182.483 174.476 180.775 172.901 178.874 171.69C176.973 170.478 174.61 169.617 172.507 170.404C172.507 170.56 172.478 170.715 172.462 170.866L171.111 170.237C169.655 169.556 168.17 168.858 167.001 167.74C165.5 166.312 164.699 164.419 164.076 162.408C164.012 162.2 163.951 162 163.886 161.776C166.472 159.115 168.222 155.745 168.919 152.086L169.246 153.159C169.32 153.4 169.406 153.637 169.505 153.869C169.672 154.317 169.951 154.715 170.314 155.024C170.418 155.106 170.532 155.173 170.654 155.223C170.766 155.268 170.883 155.298 171.002 155.313C171.17 155.334 171.34 155.322 171.503 155.276C171.777 155.191 172.028 155.045 172.238 154.849C172.448 154.652 172.612 154.411 172.717 154.142C172.782 153.982 172.829 153.815 172.859 153.645C172.874 153.542 172.884 153.438 172.887 153.334C172.887 153.302 172.887 153.269 172.887 153.237C172.887 153.204 172.887 153.094 172.887 153.024C172.887 152.955 172.887 152.951 172.887 152.91C172.887 152.869 172.887 152.776 172.867 152.706V152.6C172.867 152.519 172.842 152.437 172.826 152.359C172.81 152.282 172.826 152.315 172.826 152.294C172.806 152.192 172.782 152.086 172.762 151.984C172.762 151.96 172.762 151.931 172.762 151.907C172.762 151.882 172.725 151.739 172.705 151.654C172.685 151.568 172.677 151.543 172.664 151.486V151.462C172.624 151.299 172.588 151.14 172.551 150.976C172.257 149.56 172.182 148.107 172.329 146.668C172.571 144.556 172.957 142.464 173.486 140.405L173.571 140.034C173.603 139.891 173.635 139.749 173.664 139.602C173.728 139.308 173.793 139.014 173.854 138.716L173.999 137.966L174.109 137.297V137.211C174.336 135.695 174.383 134.157 174.25 132.629C174.064 130.496 173.409 128.476 171.973 126.869C170.957 125.73 169.618 124.89 168.676 123.694C167.794 122.577 167.296 121.198 166.382 120.1C163.858 117.061 157.377 114.719 153.401 114.311C148.845 113.846 141.487 115.021 137.814 117.734C136.455 118.733 135.524 120.182 134.578 121.553C132.838 124.102 130.864 126.648 128.077 128.08C127.025 128.619 125.819 129.027 125.12 129.965C124.703 130.601 124.434 131.323 124.331 132.079C123.795 134.735 123.516 137.438 123.497 140.148C123.497 140.487 123.497 140.826 123.497 141.168C123.506 142.185 123.72 143.189 124.128 144.118C124.193 144.257 124.266 144.391 124.343 144.526L124.391 144.612C124.881 145.317 125.314 146.061 125.686 146.835C125.779 147.052 125.845 147.28 125.884 147.513C125.953 148.11 125.915 148.716 125.771 149.3C125.771 149.389 125.734 149.479 125.718 149.569L125.682 149.744C125.682 149.805 125.682 149.867 125.649 149.924C125.617 150.099 125.589 150.275 125.565 150.446C125.503 150.918 125.533 151.397 125.654 151.858C125.709 152.114 125.818 152.356 125.972 152.567C126.127 152.778 126.325 152.953 126.552 153.082C126.782 153.193 127.027 153.27 127.28 153.31C127.535 153.355 127.794 153.383 128.044 153.441C128.367 153.515 128.678 153.631 128.971 153.787C129.251 153.923 129.513 154.092 129.751 154.293C129.869 154.401 129.981 154.516 130.087 154.636C130.301 154.883 130.493 155.147 130.662 155.427C130.748 155.572 130.829 155.718 130.904 155.868C131.194 156.458 131.426 157.076 131.596 157.712C131.701 158.092 131.79 158.475 131.867 158.859C131.904 159.03 131.936 159.201 131.964 159.369C131.993 159.536 132.021 159.707 132.045 159.874C132.156 159.868 132.265 159.846 132.369 159.809C132.963 159.593 133.295 158.895 133.481 158.218C133.514 158.104 133.542 157.994 133.566 157.883C133.659 157.475 133.756 157.027 133.849 156.598C135.444 160.013 138.015 162.869 141.232 164.799C141.345 165.137 141.455 165.472 141.552 165.815C142.082 167.663 142.337 169.597 141.418 171.212C140.763 172.359 139.663 173.065 138.433 173.554C138.255 173.316 138.027 173.121 137.765 172.983C136.701 172.444 135.423 173.097 134.529 173.901C132.911 175.378 131.592 177.495 129.464 177.981C128.696 178.16 127.846 178.124 127.207 178.597C126.784 178.998 126.43 179.466 126.159 179.984C125.697 180.653 125.077 181.194 124.353 181.557C123.63 181.921 122.828 182.095 122.021 182.065C121.281 182.028 120.403 181.857 119.897 182.403C119.521 182.811 119.492 183.456 119.088 183.843C118.546 184.382 117.656 184.121 116.899 184.088C115.459 184.027 114.12 184.965 113.299 186.169C112.478 187.373 112.085 188.813 111.681 190.249V190.273C111.577 190.35 111.478 190.433 111.386 190.522C110.993 190.944 110.689 191.44 110.492 191.983C107.22 199.495 105.289 207.53 104.788 215.719C104.796 216.118 104.707 216.513 104.529 216.87C104.348 217.103 104.149 217.321 103.934 217.522C103.742 217.76 103.599 218.034 103.514 218.328C103.428 218.622 103.402 218.93 103.437 219.235C103.472 219.539 103.568 219.833 103.718 220.1C103.868 220.366 104.069 220.6 104.31 220.786C104.427 220.574 104.572 220.378 104.743 220.207C104.699 220.395 104.658 220.578 104.63 220.746C104.467 221.936 104.452 223.142 104.585 224.336C104.968 230.004 105.355 235.668 105.746 241.328C105.856 242.932 105.965 244.531 106.11 246.13C106.394 249.225 106.798 252.308 107.324 255.379C107.348 255.518 107.377 255.661 107.413 255.787C104.116 256.844 101.183 258.753 99.9494 261.94C99.5206 263.041 99.3264 264.241 98.8005 265.297C98.222 266.456 97.2714 267.382 96.6403 268.516C95.5521 270.466 95.5036 272.857 95.9 275.044C96.6646 279.307 98.9502 283.118 101.968 286.219C101.835 286.219 101.697 286.219 101.563 286.219C100.578 286.329 99.6311 286.671 98.8005 287.218C92.417 290.98 88.7681 299.05 90.099 306.418C90.3619 307.858 90.8191 309.319 91.7738 310.416C92.5673 311.289 93.5876 311.919 94.7188 312.236C95.4262 312.45 96.1545 312.587 96.8911 312.644C101.867 313.052 106.685 310.726 111.673 310.53C113.325 310.504 114.978 310.582 116.62 310.763C119.023 310.964 121.43 311.092 123.841 311.146C127.761 311.24 129.966 310.188 132.466 307.234C133.08 306.499 133.593 305.684 133.991 304.81C136.119 304.688 138.469 304.5 140.168 304.362L140.193 304.598C140.286 305.414 140.427 306.353 141.074 306.867C141.438 307.12 141.852 307.291 142.288 307.369C146.374 308.38 150.508 309.408 154.715 309.408C156.69 309.368 158.66 309.216 160.617 308.952L168.008 308.091C170.162 308.366 172.287 308.833 174.359 309.486C176.495 310.216 178.49 311.301 180.577 312.162C185.432 314.145 190.65 314.855 195.82 315.549C196.702 315.667 197.713 315.748 198.365 315.141C199.206 314.325 198.927 312.962 198.688 311.82C198.591 311.35 198.518 310.881 198.462 310.408C201.95 311.336 205.364 312.53 208.672 313.982L209.251 314.239C209.421 315.128 210.234 315.838 211.014 316.797C211.271 317.202 211.571 317.577 211.908 317.915C212.295 318.168 212.733 318.327 213.191 318.38C218.648 319.406 224.221 319.66 229.748 319.135C230.88 318.979 232.024 318.94 233.163 319.016C234 319.131 234.825 319.318 235.63 319.575L240.311 320.93C243.761 321.925 247.293 322.933 250.873 322.709C251.599 322.663 252.32 322.558 253.029 322.395C255.861 321.734 258.499 320.138 259.858 317.572C261.779 314.084 260.894 309.792 259.858 305.957Z" fill="url(#paint0_linear)"/>
<path d="M128.906 305.162C128.052 303.203 127.243 300.951 128.097 298.993C128.654 297.84 129.611 296.932 130.787 296.443C131.951 295.964 133.177 295.659 134.428 295.537C138.354 295.018 142.326 294.963 146.265 295.374C146.552 297.667 145.945 299.992 145.423 302.208C144.95 304.248 144.679 304.55 142.591 304.656C141.24 304.729 129.226 305.884 128.906 305.162Z" fill="#FBBEBE"/>
<path d="M164.93 291.951C196.879 291.951 222.778 284.644 222.778 275.632C222.778 266.619 196.879 259.312 164.93 259.312C132.981 259.312 107.081 266.619 107.081 275.632C107.081 284.644 132.981 291.951 164.93 291.951Z" fill="#464353"/>
<path opacity="0.1" d="M164.93 291.951C196.879 291.951 222.778 284.644 222.778 275.632C222.778 266.619 196.879 259.312 164.93 259.312C132.981 259.312 107.081 266.619 107.081 275.632C107.081 284.644 132.981 291.951 164.93 291.951Z" fill="black"/>
<path d="M175.302 189.482C173.319 193.346 170.026 196.363 166.022 197.984C163.658 198.853 161.171 199.329 158.656 199.396C155.909 199.522 153.105 199.343 150.524 198.396C147.062 197.131 144.185 194.545 142.029 191.53C139.873 188.515 138.388 185.071 137.098 181.599C136.418 179.792 135.771 177.866 136.091 175.957C138.174 175.48 140.455 174.778 141.532 172.914C142.45 171.314 142.195 169.397 141.665 167.569C141.515 167.051 141.341 166.537 141.167 166.043C140.763 164.86 139.367 162.612 140.358 161.6C140.977 160.96 143.57 160.633 144.464 160.217C147.219 158.936 149.76 157.084 152.786 156.476C155.403 155.95 158.105 156.443 160.719 156.99C161.065 157.041 161.398 157.161 161.698 157.345C162.039 157.635 162.292 158.017 162.426 158.446C163.17 160.274 163.607 162.294 164.206 164.199C164.829 166.194 165.63 168.067 167.131 169.482C168.3 170.588 169.788 171.282 171.245 171.955L174.829 173.611C175.466 173.852 176.045 174.229 176.524 174.717C176.993 175.367 177.273 176.135 177.333 176.936C177.975 181.229 177.265 185.617 175.302 189.482Z" fill="#FBBEBE"/>
<path opacity="0.1" d="M164.19 164.199C161.335 167.196 157.576 169.153 153.5 169.763C149.424 170.373 145.263 169.601 141.669 167.569C141.519 167.051 141.345 166.537 141.172 166.043C140.767 164.86 139.371 162.612 140.362 161.6C140.981 160.96 143.574 160.633 144.468 160.217C147.223 158.936 149.764 157.084 152.79 156.476C155.407 155.95 158.109 156.443 160.723 156.99C161.069 157.041 161.402 157.161 161.702 157.345C162.043 157.635 162.296 158.017 162.43 158.446C163.154 160.274 163.591 162.294 164.19 164.199Z" fill="black"/>
<path d="M150.771 169.148C161.048 169.148 169.38 160.745 169.38 150.381C169.38 140.016 161.048 131.613 150.771 131.613C140.494 131.613 132.162 140.016 132.162 150.381C132.162 160.745 140.494 169.148 150.771 169.148Z" fill="#FBBEBE"/>
<path d="M207.467 211.289L205.937 201.946C205.165 197.258 204.368 192.481 202.208 188.258C200.788 185.492 198.534 182.856 195.496 182.309C194.898 182.256 194.31 182.118 193.749 181.902C192.859 181.469 192.373 180.498 191.69 179.78C189.926 177.936 187.054 177.907 184.691 176.969C182.604 176.153 180.897 174.582 178.995 173.383C177.094 172.183 174.728 171.343 172.624 172.11C172.284 175.761 171.924 179.494 170.387 182.819C169.386 184.984 167.919 186.896 166.091 188.415C164.264 189.934 162.123 191.022 159.825 191.599C157.527 192.176 155.131 192.228 152.81 191.751C150.49 191.274 148.305 190.28 146.414 188.841C142.81 186.104 140.5 181.881 139.424 177.463C139.161 176.386 138.862 175.149 137.879 174.656C136.815 174.117 135.536 174.77 134.642 175.561C133.024 177.026 131.701 179.123 129.573 179.617C128.805 179.796 127.955 179.76 127.316 180.229C126.891 180.624 126.536 181.089 126.264 181.604C125.799 182.267 125.177 182.803 124.454 183.164C123.732 183.524 122.931 183.698 122.126 183.668C121.386 183.631 120.508 183.46 120.002 184.003C119.626 184.411 119.598 185.047 119.193 185.426C118.647 185.961 117.761 185.7 117 185.671C115.56 185.61 114.221 186.54 113.396 187.711C112.571 188.882 112.182 190.33 111.778 191.734C116.2 201.664 120.245 211.607 124.666 221.537C124.874 221.911 124.984 222.332 124.986 222.761C124.897 223.206 124.709 223.625 124.436 223.985C122.268 227.498 122.336 231.916 122.575 236.045C122.814 240.174 123.105 244.535 121.276 248.236C120.779 249.251 120.132 250.182 119.658 251.197C118.55 253.499 118.149 260.859 118.797 263.331H210.254C208.51 258.496 209.174 248.794 209.538 243.662C209.793 240.072 209.133 236.486 208.85 232.895C208.231 225.564 208.668 218.608 207.467 211.289Z" fill="#B9C9EB"/>
<path d="M104.771 221.978C104.61 223.158 104.593 224.355 104.723 225.539L105.884 242.377C105.993 243.964 106.102 245.547 106.248 247.13C106.527 250.202 106.944 253.25 107.462 256.293C107.473 256.725 107.654 257.135 107.965 257.433C108.276 257.73 108.692 257.891 109.12 257.88C114.238 258.974 119.525 258.929 124.747 258.631C132.717 258.182 140.674 257.158 148.655 257.333C150.71 257.378 153.105 257.333 154.351 255.701C155.597 254.07 154.873 251.43 153.247 250.112C151.621 248.794 149.412 248.48 147.324 248.48C144.561 248.452 141.798 248.847 139.044 248.684C136.515 248.533 134.044 247.917 131.592 247.301L124.715 245.575C124.978 243.474 125.771 241.496 126.523 239.5C127.874 235.963 129.137 232.308 129.161 228.518C129.185 224.727 127.769 220.741 124.691 218.571C122.158 216.788 118.898 216.458 115.811 216.531C113.566 216.596 109.687 216.054 107.636 216.939C106.013 217.657 105.075 220.374 104.771 221.978Z" fill="#FBBEBE"/>
<path d="M212.147 260.475C213.494 259.957 214.979 260.144 216.423 260.34C221.071 260.981 225.788 261.638 230.096 263.51C232.119 264.383 234.045 265.55 235.412 267.268C236.625 268.814 237.333 270.707 238.005 272.572L239.558 276.864C240.149 278.496 240.748 280.16 240.914 281.894C241.399 287.031 237.916 291.873 233.535 294.542C229.154 297.21 223.996 298.16 218.972 299.156C213.947 300.151 208.903 301.253 203.899 302.42C201.565 303.031 199.197 303.501 196.807 303.827C191.451 304.439 185.852 303.538 180.763 305.325C178.741 306.039 176.754 307.099 174.655 307.593C173.26 307.889 171.85 308.105 170.431 308.242L160.799 309.351C158.841 309.616 156.869 309.768 154.893 309.808C150.686 309.808 146.548 308.805 142.462 307.801C142.028 307.724 141.614 307.556 141.248 307.307C140.601 306.793 140.459 305.884 140.366 305.059C139.954 301.412 139.592 297.761 139.282 294.105C139.185 292.918 139.112 291.633 139.756 290.633C140.565 289.409 142.142 289.026 143.582 288.789C149.689 287.781 155.875 287.349 162.062 287.496C164.412 285.125 168.287 285.113 171.366 283.824C172.498 283.299 173.595 282.698 174.647 282.025C180.154 278.784 186.308 276.823 192.661 276.284C193.905 276.246 195.141 276.068 196.346 275.754C198.729 275.007 200.901 272.976 203.348 273.473C203.652 272.629 203.862 271.499 204.562 270.919C204.91 270.622 205.339 270.422 205.658 270.103C206.334 269.414 206.395 268.329 206.293 267.366C206.192 266.403 205.966 265.416 206.213 264.477C206.315 264.122 206.466 263.783 206.662 263.47C207.875 261.356 209.708 260.271 212.147 260.475Z" fill="#464353"/>
<path opacity="0.05" d="M212.147 260.475C213.494 259.957 214.979 260.144 216.423 260.34C221.071 260.981 225.788 261.638 230.096 263.51C232.119 264.383 234.045 265.55 235.412 267.268C236.625 268.814 237.333 270.707 238.005 272.572L239.558 276.864C240.149 278.496 240.748 280.16 240.914 281.894C241.399 287.031 237.916 291.873 233.535 294.542C229.154 297.21 223.996 298.16 218.972 299.156C213.947 300.151 208.903 301.253 203.899 302.42C201.565 303.031 199.197 303.501 196.807 303.827C191.451 304.439 185.852 303.538 180.763 305.325C178.741 306.039 176.754 307.099 174.655 307.593C173.26 307.889 171.85 308.105 170.431 308.242L160.799 309.351C158.841 309.616 156.869 309.768 154.893 309.808C150.686 309.808 146.548 308.805 142.462 307.801C142.028 307.724 141.614 307.556 141.248 307.307C140.601 306.793 140.459 305.884 140.366 305.059C139.954 301.412 139.592 297.761 139.282 294.105C139.185 292.918 139.112 291.633 139.756 290.633C140.565 289.409 142.142 289.026 143.582 288.789C149.689 287.781 155.875 287.349 162.062 287.496C164.412 285.125 168.287 285.113 171.366 283.824C172.498 283.299 173.595 282.698 174.647 282.025C180.154 278.784 186.308 276.823 192.661 276.284C193.905 276.246 195.141 276.068 196.346 275.754C198.729 275.007 200.901 272.976 203.348 273.473C203.652 272.629 203.862 271.499 204.562 270.919C204.91 270.622 205.339 270.422 205.658 270.103C206.334 269.414 206.395 268.329 206.293 267.366C206.192 266.403 205.966 265.416 206.213 264.477C206.315 264.122 206.466 263.783 206.662 263.47C207.875 261.356 209.708 260.271 212.147 260.475Z" fill="black"/>
<path d="M132.628 307.683C130.124 310.608 127.919 311.652 123.999 311.559C121.588 311.502 119.18 311.375 116.774 311.179C115.13 311 113.476 310.922 111.823 310.947C106.831 311.142 102.013 313.448 97.0328 313.044C96.2965 312.985 95.5683 312.849 94.8605 312.636C93.7307 312.322 92.7097 311.697 91.9114 310.832C90.9567 309.743 90.4996 308.299 90.2366 306.871C88.9057 299.552 92.5546 291.58 98.9422 287.855C99.7756 287.312 100.723 286.972 101.709 286.863C102.676 286.859 103.632 287.071 104.509 287.483L104.569 287.508C107.164 288.585 109.521 290.171 111.503 292.175C111.804 292.523 112.162 292.814 112.563 293.036C112.963 293.188 113.386 293.268 113.813 293.273L119.129 293.611C120.029 293.639 120.924 293.763 121.798 293.983C122.762 294.322 123.7 294.731 124.606 295.207C127.466 296.496 130.638 296.839 133.728 297.336C134.026 297.353 134.31 297.468 134.537 297.663C134.661 297.817 134.746 297.999 134.788 298.193C135.222 299.833 135.253 301.554 134.876 303.208C134.5 304.862 133.728 306.398 132.628 307.683Z" fill="#3F3D56"/>
<path opacity="0.1" d="M104.569 287.512C102.507 289.498 100.718 291.754 99.2497 294.219C96.8937 298.288 95.4133 302.811 94.905 307.495C94.7122 309.204 94.6973 310.928 94.8605 312.64C93.7307 312.326 92.7097 311.702 91.9114 310.837C90.9567 309.747 90.4996 308.303 90.2366 306.875C88.9057 299.556 92.5546 291.584 98.9422 287.859C99.7756 287.316 100.723 286.977 101.709 286.867C102.676 286.863 103.632 287.075 104.509 287.488L104.569 287.512Z" fill="black"/>
<path d="M207.519 297.663C210.493 297.581 213.83 297.43 216.014 299.45C218.098 301.359 218.373 304.509 218.51 307.344L218.668 310.637C218.717 311.64 218.757 312.677 218.357 313.607C217.645 315.239 215.691 316.026 213.907 315.932C212.123 315.838 210.484 315.051 208.854 314.341C204.428 312.418 199.82 310.954 195.1 309.972C195.254 307.695 195.51 305.429 195.869 303.175C196.115 301.612 196.156 298.997 197.191 297.699C198.288 296.329 199.716 297.071 201.204 297.324C203.293 297.646 205.408 297.759 207.519 297.663Z" fill="#FBBEBE"/>
<path d="M128.942 264.579C128.942 264.987 128.307 264.579 128.251 264.143C127.806 260.842 125.209 258.121 122.183 256.799C119.157 255.477 115.71 255.408 112.433 255.722C107.478 256.195 101.915 258.109 100.103 262.78C99.6743 263.874 99.4802 265.057 98.9543 266.105C98.3717 267.256 97.4211 268.174 96.79 269.292C95.7018 271.225 95.6573 273.596 96.0497 275.783C97.1055 281.617 101.062 286.606 105.856 290.062C110.649 293.518 116.252 295.582 121.839 297.442C136.611 302.356 151.767 306.007 167.147 308.356C169.639 308.735 172.155 309.086 174.542 309.894C176.678 310.616 178.676 311.697 180.763 312.546C185.618 314.512 190.84 315.214 196.014 315.904C196.896 316.018 197.907 316.1 198.559 315.496C199.4 314.708 199.121 313.337 198.882 312.207C198.004 307.91 198.741 303.438 200.95 299.658C201.815 298.189 202.94 296.684 202.778 294.982C202.584 292.999 200.626 291.596 198.676 291.278C196.726 290.96 194.744 291.429 192.786 291.686C192.111 291.776 191.374 291.833 190.784 291.486C190.493 291.288 190.229 291.052 189.999 290.784C188.65 289.472 186.924 288.624 185.068 288.362C183.212 288.101 181.321 288.439 179.667 289.328C178.943 289.736 177.847 288.826 177.094 288.483L168.587 284.599C158.813 280.14 148.991 275.66 138.651 272.837C137.826 272.673 137.042 272.345 136.345 271.87C135.832 271.462 135.464 270.907 134.99 270.454C133.959 269.471 132.523 269.079 131.285 268.382C130.047 267.684 128.659 265.979 128.942 264.579Z" fill="#464353"/>
<path d="M260.097 317.899C258.737 320.44 256.1 322.023 253.268 322.676C252.557 322.838 251.835 322.942 251.108 322.986C247.528 323.211 243.992 322.211 240.541 321.224L235.857 319.894C235.052 319.638 234.226 319.452 233.389 319.339C232.25 319.262 231.106 319.302 229.975 319.457C224.438 319.977 218.857 319.724 213.389 318.707C212.932 318.657 212.492 318.499 212.107 318.246C211.769 317.912 211.469 317.541 211.213 317.14C209.938 315.594 208.567 314.692 210.076 312.652C210.946 311.469 212.56 310.877 213.235 309.519C213.911 308.16 213.478 306.23 213.078 304.827C212.531 302.889 210.735 302.053 210.092 300.274C209.611 298.932 210.42 297.373 211.637 296.643C212.855 295.913 214.36 295.855 215.764 296.043C217.167 296.231 218.543 296.631 219.955 296.741C224.105 297.075 228.349 294.917 232.333 296.133C233.211 296.402 234.041 296.83 234.931 297.067C236.666 297.459 238.478 297.3 240.121 296.614C240.703 296.394 241.274 296.129 241.84 295.868C242.932 295.294 244.095 294.87 245.299 294.607C249.186 293.934 252.791 296.647 255.724 299.295C256.73 300.137 257.621 301.112 258.373 302.191C259.182 303.464 259.611 304.945 259.991 306.406C261.063 310.18 261.949 314.431 260.097 317.899Z" fill="#3F3D56"/>
<path opacity="0.1" d="M260.097 317.899C258.737 320.441 256.1 322.024 253.268 322.676C254.37 320.518 254.866 318.097 254.704 315.675C254.461 311.795 252.771 308.14 250.614 304.917C249.288 302.933 247.779 301.079 246.108 299.38C244.821 298.075 243.24 297.039 241.856 295.843C242.948 295.27 244.112 294.846 245.315 294.583C249.203 293.909 252.807 296.622 255.74 299.27C256.747 300.113 257.638 301.087 258.389 302.167C259.199 303.44 259.627 304.921 260.008 306.381C261.063 310.18 261.949 314.431 260.097 317.899Z" fill="black"/>
<path d="M111.548 192.036C111.153 192.452 110.848 192.945 110.649 193.484C107.379 200.916 105.448 208.877 104.946 216.992C104.954 217.388 104.864 217.779 104.683 218.13C104.504 218.364 104.305 218.581 104.088 218.779C103.891 219.014 103.744 219.288 103.656 219.583C103.568 219.878 103.541 220.188 103.577 220.494C103.613 220.8 103.71 221.095 103.863 221.362C104.017 221.628 104.222 221.86 104.468 222.043C105.136 220.774 106.734 220.362 108.153 220.252C114.954 219.709 121.596 222.9 128.417 222.659C127.935 220.982 127.243 219.371 126.851 217.673C125.116 210.138 129.444 201.933 126.79 194.675C126.26 193.223 125.375 191.795 123.979 191.159C123.401 190.923 122.796 190.761 122.179 190.677C120.455 190.363 117.025 189.021 115.358 189.559C114.743 189.759 114.501 190.343 113.991 190.693C113.218 191.195 112.191 191.379 111.548 192.036Z" fill="#B9C9EB"/>
<path d="M212.879 206.886H129.116C127.336 206.886 125.892 208.342 125.892 210.138V261.568C125.892 263.364 127.336 264.82 129.116 264.82H212.879C214.66 264.82 216.103 263.364 216.103 261.568V210.138C216.103 208.342 214.66 206.886 212.879 206.886Z" fill="#3F3D56"/>
<path d="M170.796 238.301C172.136 238.301 173.223 237.205 173.223 235.853C173.223 234.501 172.136 233.405 170.796 233.405C169.455 233.405 168.368 234.501 168.368 235.853C168.368 237.205 169.455 238.301 170.796 238.301Z" fill="white"/>
<path d="M137.915 119.92C136.556 120.912 135.625 122.336 134.679 123.702C132.935 126.228 130.961 128.749 128.174 130.157C127.118 130.691 125.912 131.095 125.213 132.025C124.797 132.654 124.528 133.37 124.424 134.118C123.89 136.75 123.611 139.428 123.59 142.115C123.59 143.453 123.647 144.832 124.234 146.048C124.788 147.19 125.787 148.157 125.993 149.401C126.151 150.372 125.795 151.339 125.67 152.314C125.544 153.289 125.763 154.444 126.657 154.909C127.138 155.092 127.642 155.211 128.154 155.264C130.844 155.868 131.746 159.05 132.154 161.682C133.069 161.629 133.481 160.572 133.671 159.711L136.475 147.141C136.778 145.778 137.284 144.2 138.631 143.722C139.533 143.408 140.52 143.702 141.463 143.783C145.164 144.089 148.295 141.205 151.916 140.409C153.075 140.173 154.26 140.094 155.439 140.173C158.295 140.316 161.617 141.499 162.223 144.187C162.325 144.624 162.385 145.146 162.79 145.362C163.194 145.579 163.619 145.395 164.044 145.362C165.856 145.179 166.924 147.235 167.446 148.916L169.347 155.036C169.63 155.962 170.108 157.051 171.103 157.169C172.021 157.284 172.802 156.406 172.94 155.537C173.077 154.668 172.778 153.767 172.58 152.894C171.686 148.875 173.053 144.763 173.886 140.736C174.72 136.709 174.869 132.082 172.074 128.982C171.058 127.86 169.724 127.023 168.777 125.84C167.895 124.731 167.397 123.368 166.483 122.279C163.955 119.272 157.47 116.95 153.494 116.567C148.951 116.069 141.588 117.232 137.915 119.92Z" fill="#3F3D56"/>
</g>
<defs>
<linearGradient id="paint0_linear" x1="175.448" y1="322.754" x2="175.448" y2="114.193" gradientUnits="userSpaceOnUse">
<stop stop-color="#808080" stop-opacity="0.25"/>
<stop offset="0.54" stop-color="#808080" stop-opacity="0.12"/>
<stop offset="1" stop-color="#808080" stop-opacity="0.1"/>
</linearGradient>
<clipPath id="clip0">
<rect width="420" height="712" fill="white"/>
</clipPath>
</defs>
</svg>
