<svg width="173" height="172" viewBox="0 0 173 172" fill="none" xmlns="http://www.w3.org/2000/svg">
<g clip-path="url(#clip0)">
<path d="M99.2592 94.5968H81.6998V172H99.2592V94.5968Z" fill="url(#paint0_linear)"/>
<path d="M98.1031 94.5968H83.3161V170.615H98.1031V94.5968Z" fill="#ECEFF1"/>
<path d="M140.109 34.2905H61.0283C58.3099 34.3599 55.631 34.9569 53.1405 36.0483C45.1017 39.6112 40.4228 45.2032 39.1015 57.6047V86.256L18.1468 86.0342C13.9328 86.0342 12.392 92.6597 12.392 97.138H153.94V48.9878C153.94 40.8712 147.756 34.2905 140.109 34.2905Z" fill="url(#paint1_linear)"/>
<path d="M63.9069 37.2942H142.261C144.807 37.2942 147.248 38.3055 149.048 40.1055C150.848 41.9056 151.859 44.347 151.859 46.8926V94.5969H63.9069V37.2942Z" fill="#B9C9EB"/>
<path d="M62.0547 37.2942C67.6923 37.2942 73.099 39.5337 77.0854 43.5201C81.0718 47.5065 83.3113 52.9132 83.3113 58.5509V84.1938C83.3113 86.9529 82.2153 89.5989 80.2644 91.5499C78.3134 93.5008 75.6674 94.5969 72.9083 94.5969H51.201C48.4419 94.5969 45.7959 93.5008 43.8449 91.5499C41.894 89.5989 40.798 86.9529 40.798 84.1938V58.5509C40.798 52.9132 43.0375 47.5065 47.0239 43.5201C51.0103 39.5337 56.417 37.2942 62.0547 37.2942Z" fill="#B9C9EB"/>
<path opacity="0.2" d="M62.0547 37.2942C67.6923 37.2942 73.099 39.5337 77.0854 43.5201C81.0718 47.5065 83.3113 52.9132 83.3113 58.5509V84.1938C83.3113 86.9529 82.2153 89.5989 80.2644 91.5499C78.3134 93.5008 75.6674 94.5969 72.9083 94.5969H51.201C48.4419 94.5969 45.7959 93.5008 43.8449 91.5499C41.894 89.5989 40.798 86.9529 40.798 84.1938V58.5509C40.798 52.9132 43.0375 47.5065 47.0239 43.5201C51.0103 39.5337 56.417 37.2942 62.0547 37.2942Z" fill="black"/>
<path d="M118.668 29.6707H107.694H101.109V42.721V58.7821H109.079V42.721H118.668V29.6707Z" fill="url(#paint2_linear)"/>
<path d="M117.281 29.6707H108.039H102.494V41.6852V56.4721H108.039V41.6852H117.281V29.6707Z" fill="#FFCC80"/>
<path d="M40.9702 48.2334L38.7841 66.1935L68.0078 69.7506L70.1939 51.7906L40.9702 48.2334Z" fill="url(#paint3_linear)"/>
<path d="M41.2745 48.7235L39.2344 65.4843L67.4673 68.9209L69.5075 52.1601L41.2745 48.7235Z" fill="#FAF8E4"/>
<g opacity="0.6">
<path opacity="0.6" d="M42.0151 52.8121L45.608 53.2495L45.9316 50.591L42.3387 50.1537L42.0151 52.8121Z" fill="#B9C9EB"/>
<path opacity="0.6" d="M44.3323 58.3414L58.1255 60.0204L58.2305 59.1584L44.4372 57.4795L44.3323 58.3414Z" fill="#B9C9EB"/>
<path opacity="0.6" d="M47.8414 60.6648L57.8989 61.889L57.9687 61.3152L47.9113 60.091L47.8414 60.6648Z" fill="#B9C9EB"/>
</g>
<path d="M52.8775 52.1841L50.6913 70.1442L79.915 73.7013L82.1012 55.7413L52.8775 52.1841Z" fill="url(#paint4_linear)"/>
<path d="M53.1819 52.6765L51.1417 69.4373L79.3747 72.8739L81.4148 56.113L53.1819 52.6765Z" fill="#FAF8E4"/>
<g opacity="0.6">
<path opacity="0.6" d="M53.9243 56.7656L57.5172 57.2029L57.8408 54.5445L54.2479 54.1072L53.9243 56.7656Z" fill="#B9C9EB"/>
<path opacity="0.6" d="M56.2415 62.2949L70.0347 63.9739L70.1396 63.1119L56.3464 61.433L56.2415 62.2949Z" fill="#B9C9EB"/>
<path opacity="0.6" d="M59.7459 64.618L69.8033 65.8422L69.8732 65.2684L59.8158 64.0442L59.7459 64.618Z" fill="#B9C9EB"/>
</g>
<path d="M27.5773 53.8726L24.614 78.2175L64.2254 83.039L67.1887 58.6941L27.5773 53.8726Z" fill="url(#paint5_linear)"/>
<path d="M27.9919 54.5331L25.2262 77.2548L63.4955 81.913L66.2612 59.1913L27.9919 54.5331Z" fill="white"/>
<g opacity="0.6">
<path opacity="0.6" d="M28.9958 60.0772L33.8652 60.6699L34.3037 57.0676L29.4343 56.4749L28.9958 60.0772Z" fill="#B9C9EB"/>
<path opacity="0.6" d="M32.1329 67.5746L50.8307 69.8505L50.973 68.6818L32.2752 66.4058L32.1329 67.5746Z" fill="#B9C9EB"/>
<path opacity="0.6" d="M36.8907 70.7222L50.5247 72.3818L50.6197 71.6018L36.9857 69.9423L36.8907 70.7222Z" fill="#B9C9EB"/>
</g>
<path d="M43.7186 59.2276L40.7552 83.5724L80.3666 88.394L83.33 64.0491L43.7186 59.2276Z" fill="url(#paint6_linear)"/>
<path d="M44.1305 59.8925L41.3647 82.6142L79.634 87.2724L82.3998 64.5507L44.1305 59.8925Z" fill="white"/>
<g opacity="0.6">
<path opacity="0.6" d="M45.1359 65.4357L50.0054 66.0284L50.4439 62.4261L45.5744 61.8334L45.1359 65.4357Z" fill="#B9C9EB"/>
<path opacity="0.6" d="M48.2731 72.9331L66.9709 75.209L67.1131 74.0403L48.4153 71.7644L48.2731 72.9331Z" fill="#B9C9EB"/>
<path opacity="0.6" d="M53.0306 76.0807L66.6646 77.7403L66.7595 76.9603L53.1255 75.3008L53.0306 76.0807Z" fill="#B9C9EB"/>
</g>
<path opacity="0.2" d="M61.8282 37.5254C59.0475 37.5232 56.2935 38.0684 53.7233 39.1299C54.7244 38.9862 55.7345 38.9137 56.7458 38.9128C59.5373 38.9128 62.3014 39.4626 64.8804 40.5308C67.4594 41.5991 69.8027 43.1649 71.7766 45.1387C73.7504 47.1126 75.3162 49.4559 76.3845 52.0349C77.4527 54.6139 78.0025 57.378 78.0025 60.1695V93.9102H83.0849V58.7821C83.0849 53.1445 80.8453 47.7377 76.8589 43.7513C72.8725 39.7649 67.4658 37.5254 61.8282 37.5254Z" fill="black"/>
<path d="M22.3184 87.2021H83.316V94.5968H14.9238C14.9238 92.6356 15.7028 90.7548 17.0896 89.368C18.4764 87.9812 20.3572 87.2021 22.3184 87.2021Z" fill="#B9C9EB"/>
<path opacity="0.2" d="M22.3184 87.2021H83.316V94.5968H14.9238C14.9238 92.6356 15.7028 90.7548 17.0896 89.368C18.4764 87.9812 20.3572 87.2021 22.3184 87.2021Z" fill="white"/>
<path d="M155.106 16.6533L154.405 16.9954L154.485 16.8515L154.424 16.8704L154.511 16.8067L163.954 0L168.782 4.11732L172.925 7.95149L171.736 8.53193L173.071 10.8891L155.106 16.6533Z" fill="url(#paint7_linear)"/>
<path d="M168.305 4.55615L172.09 8.06708L154.931 16.5966L164.063 4.89356L168.305 4.55615Z" fill="#B9C9EB"/>
<path opacity="0.2" d="M168.305 4.55615L172.09 8.06708L154.931 16.5966L164.063 4.89356L168.305 4.55615Z" fill="black"/>
<path d="M163.888 0.790405L154.931 16.5967L168.305 4.55616L163.888 0.790405Z" fill="#B9C9EB"/>
<path d="M172.201 10.7829L154.95 16.481L169.369 5.71704L172.201 10.7829Z" fill="#B9C9EB"/>
<path d="M28.708 20.5205L29.8358 20.6951L29.6612 20.53H29.7579L29.6069 20.4781L9.11236 1.04291L4.13855 8.89294L0 16.054L1.91591 16.3513L1.06649 20.2303L28.708 20.5205Z" fill="url(#paint8_linear)"/>
<path d="M4.99744 9.3011L1.21753 15.8534L28.9274 20.3648L11.0802 7.93732L4.99744 9.3011Z" fill="#B9C9EB"/>
<path opacity="0.2" d="M4.99744 9.3011L1.21753 15.8534L28.9274 20.3648L11.0802 7.93732L4.99744 9.3011Z" fill="black"/>
<path d="M9.5489 2.12115L28.9274 20.3648L4.99744 9.30109L9.5489 2.12115Z" fill="#B9C9EB"/>
<path d="M2.23914 19.7041L28.8519 20.2138L4.00876 11.3893L2.23914 19.7041Z" fill="#B9C9EB"/>
</g>
<defs>
<linearGradient id="paint0_linear" x1="90.4795" y1="172" x2="90.4795" y2="94.5968" gradientUnits="userSpaceOnUse">
<stop stop-color="#808080" stop-opacity="0.25"/>
<stop offset="0.54" stop-color="#808080" stop-opacity="0.12"/>
<stop offset="1" stop-color="#808080" stop-opacity="0.1"/>
</linearGradient>
<linearGradient id="paint1_linear" x1="33737.7" y1="22773.8" x2="118660" y2="22773.8" gradientUnits="userSpaceOnUse">
<stop stop-color="#808080" stop-opacity="0.25"/>
<stop offset="0.54" stop-color="#808080" stop-opacity="0.12"/>
<stop offset="1" stop-color="#808080" stop-opacity="0.1"/>
</linearGradient>
<linearGradient id="paint2_linear" x1="8279.02" y1="7282.2" x2="8279.02" y2="3690.43" gradientUnits="userSpaceOnUse">
<stop stop-color="#808080" stop-opacity="0.25"/>
<stop offset="0.54" stop-color="#808080" stop-opacity="0.12"/>
<stop offset="1" stop-color="#808080" stop-opacity="0.1"/>
</linearGradient>
<linearGradient id="paint3_linear" x1="-6077.88" y1="10636.8" x2="-5805.12" y2="8395.9" gradientUnits="userSpaceOnUse">
<stop stop-color="#808080" stop-opacity="0.25"/>
<stop offset="0.54" stop-color="#808080" stop-opacity="0.12"/>
<stop offset="1" stop-color="#808080" stop-opacity="0.1"/>
</linearGradient>
<linearGradient id="paint4_linear" x1="-5191.56" y1="11060.9" x2="-4918.79" y2="8820.05" gradientUnits="userSpaceOnUse">
<stop stop-color="#808080" stop-opacity="0.25"/>
<stop offset="0.54" stop-color="#808080" stop-opacity="0.12"/>
<stop offset="1" stop-color="#808080" stop-opacity="0.1"/>
</linearGradient>
<linearGradient id="paint5_linear" x1="-9278.08" y1="16608" x2="-8776.92" y2="12490.8" gradientUnits="userSpaceOnUse">
<stop stop-color="#808080" stop-opacity="0.25"/>
<stop offset="0.54" stop-color="#808080" stop-opacity="0.12"/>
<stop offset="1" stop-color="#808080" stop-opacity="0.1"/>
</linearGradient>
<linearGradient id="paint6_linear" x1="-7643.59" y1="17386" x2="-7142.43" y2="13268.8" gradientUnits="userSpaceOnUse">
<stop stop-color="#808080" stop-opacity="0.25"/>
<stop offset="0.54" stop-color="#808080" stop-opacity="0.12"/>
<stop offset="1" stop-color="#808080" stop-opacity="0.1"/>
</linearGradient>
<linearGradient id="paint7_linear" x1="-2704.95" y1="12978" x2="-3471.55" y2="12322.3" gradientUnits="userSpaceOnUse">
<stop stop-color="#808080" stop-opacity="0.25"/>
<stop offset="0.54" stop-color="#808080" stop-opacity="0.12"/>
<stop offset="1" stop-color="#808080" stop-opacity="0.1"/>
</linearGradient>
<linearGradient id="paint8_linear" x1="1159.86" y1="14968.9" x2="2074.55" y2="13525.3" gradientUnits="userSpaceOnUse">
<stop stop-color="#808080" stop-opacity="0.25"/>
<stop offset="0.54" stop-color="#808080" stop-opacity="0.12"/>
<stop offset="1" stop-color="#808080" stop-opacity="0.1"/>
</linearGradient>
<clipPath id="clip0">
<rect width="173.071" height="172" fill="white"/>
</clipPath>
</defs>
</svg>
